<?xml version="1.0" standalone="no"?>
<!DOCTYPE svg PUBLIC "-//W3C//DTD SVG 1.1//EN" "http://www.w3.org/Graphics/SVG/1.1/DTD/svg11.dtd" >
<svg xmlns="http://www.w3.org/2000/svg">
<metadata>Generated by IcoMoon</metadata>
<defs>
<font id="icomoon" horiz-adv-x="1024">
<font-face units-per-em="1024" ascent="960" descent="-64" />
<missing-glyph horiz-adv-x="1024" />
<glyph unicode="&#x20;" horiz-adv-x="512" d="" />
<glyph unicode="&#xe900;" glyph-name="Address" d="M1023.84 255.925c-1.663-8.737-3.166-17.514-5.050-26.211-5.565-25.786-15.205-48.595-28.326-68.947l0.492 0.814c-38.275-59.717-76.429-119.533-115.005-179.070-30.339-46.811-90.437-46.892-120.796-0.12q-58.735 90.597-116.488 181.795c-4.008 6.332-8.016 8.016-15.13 8.016q-253.495-0.261-506.99-0.14c-23.306 0-28.636 5.391-28.636 28.937v375.914c-3.908-2.004-6.713-3.166-9.358-4.669-15.35-8.717-30.58-17.614-45.99-26.231-17.574-9.819-32.403-1.202-32.483 18.917-0.12 36.070 0.14 72.001-0.12 107.991 0 10.901 4.348 18.035 13.807 23.306 45.248 25.49 90.176 51.501 135.525 76.91 6.633 3.727 9.278 7.615 9.198 15.43-0.421 44.667-0.24 89.334-0.18 133.982 0 18.877 6.473 25.37 25.149 25.39q46.972 0 93.984 0c16.612 0 23.746-7.074 23.867-23.686 0.14-20.62 0-41.241 0-63.785 4.649 2.365 8.016 4.008 11.322 5.771 44.547 25.37 89.214 50.559 133.541 76.329 10.781 6.272 19.879 6.232 30.66 0 44.948-26.051 90.176-51.42 135.304-77.291 5.043-2.725 9.247-6.384 12.513-10.781l0.072-0.101c5.17-7.875 3.326-16.031-2.966-22.885s-15.831-7.735-24.828-2.705c-21.201 11.843-42.283 24.047-63.404 36.070-21.682 12.364-43.405 24.668-64.987 37.233-1.934 1.385-4.347 2.215-6.954 2.215-2.495 0-4.813-0.76-6.735-2.062l0.042 0.027q-204.279-116.628-408.678-233.095c-2.906-1.643-6.292-5.591-6.372-8.537-0.541-20.961-0.301-41.942-0.301-64.746 4.208 2.224 7.294 3.747 10.28 5.471q198.027 113.522 395.973 227.304c11.082 6.372 20.4 6.493 31.562 0q198.187-114.223 396.775-227.885c2.545-1.463 5.21-2.705 9.799-5.090 0 12.244 0.14 22.985 0 33.746-0.18 11.923 3.186 26.051-2.004 35.169-4.97 8.777-18.857 12.585-28.957 18.356-33.225 19.017-66.55 37.894-99.755 56.951-12.845 7.394-16.031 21.041-7.394 30.96 6.453 7.455 15.711 9.298 25.35 3.848 47.252-26.692 94.344-53.665 141.496-80.537 7.475-4.228 10.501-10.961 10.521-19.137 0-37.333 0.361-74.666 0-111.979-0.22-18.175-15.55-26.452-31.502-17.594-15.43 8.577-30.62 17.554-45.95 26.311-2.765 1.583-5.671 2.886-9.458 4.809v-96.188c25.69-3.166 50.098-9.218 72.702-21.221 65.007-34.688 103.442-88.172 113.281-161.676 0.62-3.069 1.312-5.637 2.144-8.141l-0.14 0.486zM616.123 211.959c-0.962 4.369-1.603 7.595-2.365 10.781-29.337 121.698 50.459 239.227 174.701 256.741 7.034 1.002 7.695 4.008 7.675 9.739-0.16 34.067-0.321 67.993 0.1 101.979 0 7.114-2.585 10.601-8.416 13.927q-159.131 91.078-317.981 182.516c-5.831 3.347-10.020 3.767-16.192 0.261q-158.73-91.579-317.841-182.537c-6.292-3.587-8.677-7.435-8.657-14.749q0.361-183.959 0.18-367.879v-10.541h243.055v12.344q0 98.953 0 197.927c0 21.121 6.192 27.193 27.614 27.213h126.948c21.542 0 27.373-5.731 27.373-27.113q0-98.993 0-197.947c0-4.148 0.401-8.296 0.621-12.665zM984.643 273.179c-0.802 8.016-1.363 15.911-2.405 23.806-12.304 92.18-103.662 159.071-194.62 142.659-116.848-21.081-177.306-150.033-116.508-252.132 37.634-63.183 78.694-124.243 118.692-186.043 12.865-19.859 38.776-19.638 51.661 0.261q59.657 92.18 118.471 185.041c16.572 26.191 24.067 55.348 24.708 86.409zM410.281 212.139h102.2v197.125h-102.2zM198.548 908.099v-106.769c20.821 11.883 40.419 23.025 59.937 34.347 1.656 0.965 2.844 2.58 3.219 4.487l0.007 0.042c0.22 22.504 0.14 45.028 0.14 67.893zM686.541 819.926c10.555-0.136 19.059-8.724 19.059-19.298 0-10.659-8.641-19.299-19.299-19.299-0.085 0-0.169 0.001-0.253 0.002h0.013c-10.555 0.136-19.059 8.724-19.059 19.298 0 10.659 8.641 19.299 19.299 19.299 0.085 0 0.169-0.001 0.253-0.002h-0.013zM461.161 694.041c0.161 0.001 0.351 0.002 0.542 0.002 45.039 0 81.569-36.426 81.739-81.425v-0.016c0-44.787-37.333-82.16-82.040-82.040-44.818 0.303-81.082 36.497-81.499 81.259v0.040c-0.004 0.298-0.006 0.65-0.006 1.002 0 44.834 36.345 81.179 81.179 81.179 0.030 0 0.061 0 0.091 0h-0.005zM419.279 612.421c0-0.006 0-0.013 0-0.020 0-23.396 18.966-42.363 42.363-42.363s42.363 18.966 42.363 42.363c0 23.333-18.864 42.26-42.173 42.362h-0.010c-0.216 0.004-0.47 0.006-0.725 0.006-23.097 0-41.822-18.724-41.822-41.822 0-0.185 0.001-0.371 0.004-0.555v0.028zM815.874 171.921c-0.104 0-0.227-0.001-0.351-0.001-56.178 0-101.719 45.541-101.719 101.719 0 56.055 45.342 101.519 101.35 101.719h0.019c55.689 0.281 101.999-45.709 102.2-101.518 0-0.030 0-0.065 0-0.101 0-56.12-45.403-101.636-101.481-101.818h-0.017zM815.072 211.258c0.173-0.002 0.377-0.003 0.581-0.003 34.441 0 62.362 27.92 62.362 62.362s-27.92 62.362-62.362 62.362c-34.419 0-62.326-27.885-62.362-62.296v-0.003c0-0.054 0-0.118 0-0.182 0-34.213 27.605-61.979 61.756-62.24h0.025z" />
<glyph unicode="&#xe901;" glyph-name="alert" d="M1023.719 69.060c-1.002-3.487-2.004-6.954-2.986-10.46-10.020-38.555-43.104-64.366-83.543-64.907-20.66-0.281-41.321 0-62.001 0q-392.467 0-784.993 0c-52.422 0-91.799 38.816-90.176 88.733 0.561 16.733 6.693 31.602 15.009 45.99q150.294 259.888 300.286 519.915c40.459 70.137 80.738 140.274 121.417 210.231 22.384 38.495 65.388 53.825 105.787 38.475 18.286-6.841 33.075-19.497 42.454-35.679l0.209-0.391q88.132-152.237 175.924-304.535c6.893-12.023 4.008-23.646-6.332-29.297s-20.981-1.904-28.215 10.621q-85.727 148.29-171.234 296.82c-8.817 15.35-20.219 26.672-38.435 28.415-21.141 2.004-36.571-7.334-47.032-25.53q-38.395-66.67-76.87-133.26-171.695-297.18-343.25-594.281c-7.014-12.023-12.444-24.388-9.519-38.776 4.181-21.575 22.748-37.702 45.149-38.074l0.040-0.001c2.004 0 4.008 0 6.012 0h840.983c27.033 0 45.349 13.627 50.599 37.553 2.986 13.566-1.323 25.49-8.016 37.092q-53.825 92.921-107.43 185.983-29.458 51.080-59.015 102.059c-4.769 8.176-6.012 16.272 0 24.247 5.15 6.914 12.905 9.839 20.32 6.573 6.219-3.018 11.254-7.647 14.682-13.351l0.087-0.156c29.698-50.539 58.835-101.378 88.172-152.137 18.817-32.584 37.834-65.067 56.41-97.771 13.246-23.306 29.117-45.349 35.549-72.141zM575.404 452.228c0-30.319 0.381-60.658-0.1-90.958-0.501-31.341-23.927-58.114-53.424-61.961-32.063-4.288-60.959 13.106-70.357 43.024-2.146 6.74-3.39 14.494-3.407 22.536v0.009q-0.381 87.471-0.1 174.922c0 37.774 28.055 66.67 64.005 66.39s63.163-28.716 63.384-65.989c0.18-29.337 0-58.655 0-87.972zM535.907 451.427c0 29.277 0 58.574 0 87.872 0 16.232-9.779 27.313-23.907 27.574s-24.548-11.142-24.568-27.894q0-86.87 0-173.739c0-16.332 9.679-27.273 23.887-27.494 14.609-0.24 24.548 10.881 24.588 27.814 0.12 28.556 0 57.232 0 85.868zM511.559 249.372c34.908-0.114 63.163-28.439 63.163-63.363 0-34.995-28.369-63.364-63.364-63.364-34.945 0-63.284 28.289-63.364 63.215v0.008c0 0.012 0 0.026 0 0.040 0 35.050 28.414 63.464 63.464 63.464 0.035 0 0.070 0 0.106 0h-0.005zM535.907 185.708c0 0.048 0.001 0.104 0.001 0.16 0 13.369-10.838 24.207-24.207 24.207s-24.207-10.838-24.207-24.207c0-13.369 10.838-24.207 24.207-24.207v0c0 0 0 0 0.001 0 13.313 0 24.116 10.747 24.207 24.038v0.009zM769.643 468.961c0.148 10.556 8.739 19.056 19.316 19.056 10.669 0 19.318-8.649 19.318-19.318 0-10.584-8.511-19.18-19.063-19.316h-0.013c-0.072-0.001-0.157-0.002-0.242-0.002-10.669 0-19.318 8.649-19.318 19.318 0 0.092 0.001 0.184 0.002 0.276v-0.014z" />
<glyph unicode="&#xe902;" d="M115.791 489.503c-20.969 0.815-20.969 0.815-29.090-18.008-1.032-2.363-1.385-5.215-4.427-6.111-9.154 4.455-18.85 1.684-28.275 1.983-16.46 0.516-32.974 0.136-49.462 0.136v-2.173h77.601c-10.403-2.879-20.996-0.924-31.508-1.222-16.867-0.489-33.789-0.407-50.684-0.598v6.003c9.833 15.781 16.134 33.246 23.658 50.086 14.586 32.73 28.574 65.759 42.481 98.787 2.282 5.432 5.025 7.497 11.028 7.334 15.319-0.462 30.666 0 45.985-0.19 9.778 0 21.539 3.911 24.446-12.82-1.494 13.581 6.084 13.581 14.314 12.902 3.966-0.326 7.986-0.244 11.978-0.353-2.716-3.341-7.605-0.19-10.865-2.852 4.726-7.931 13.581-11.625 16.813-19.937-6.953 0.462-7.768-3.64-7.741-9.425 0.19-31.888 0-63.749 0-96.234-3.341 1.901-3.558 4.672-4.536 6.953-9.67 22.925-19.203 45.876-28.982 68.747-4.129 9.697-5.188 23.305-13.581 27.868s-20.752 1.005-31.372 1.63c-6.030 0.38-8.719-1.983-10.865-7.388-11.788-28.52-24.31-56.714-35.962-85.288-9.479-23.223-14.396-19.774 14.423-20.1 10.104 0 9.344 9.398 11.734 14.993 3.151 7.307 6.899 10.186 14.83 9.479 3.893-0.486 8.399-0.764 12.97-0.764s9.076 0.278 13.501 0.817l-0.532-0.053c14.749 2.227 24.093-2.499 27.705-17.302 1.412-5.894 5.269-7.252 11.028-7.062 12.63 0.407 25.315 0.57 38.027 0 7.497-0.38 9.588 1.847 9.452 9.398-0.489 25.532-0.19 51.064-0.19 76.623q19.013-37.402 34.523-75.754c3.314-8.149 7.551-10.484 16.107-10.457s13.581 1.983 16.297 10.43c2.209 5.504 4.56 10.159 7.252 14.584l-0.244-0.432c0-4.156 3.287-6.302 5.813-8.828 9.507-9.615 19.203-19.013 28.601-28.792 2.282-2.336 6.247-3.83 5.84-8.149-10.159-2.091-20.561 2.119-30.258-2.553-3.83 3.477-0.326 8.339-2.716 12.848-1.874-3.803-3.585-7.252-5.269-10.702-16.705 0.815-33.572-2.526-50.168 1.874l-5.297 9.941c-0.299-4.971-0.489-8.393-0.706-11.815l-91.264-0.244c-3.993 5.785-3.64 14.151-10.675 18.144v0c0.407 1.657 0.272 3.341-1.738 4.047z" />
<glyph unicode="&#xe903;" d="M180.056 602.361c-3.314 8.312-12.087 12.006-16.813 19.937 3.151 2.716 8.149-0.489 10.865 2.852h2.173c2.091-2.309 4.862-1.684 7.442-1.684 16.487 0 33.002 0 49.489 0 5.432-11.897 11.001-23.821 17.166-37.157l17.655 37.049h258.526c3.232 0 6.709-0.951 9.561 1.575 8.474 0.353 15.645-3.504 22.762-7.144 3.015 1.548-0.38 6.084 3.504 7.089 2.852-2.553 6.329-1.494 9.507-1.494q24.853-0.163 49.706 0c5.731 0 11.571 0.706 11.028-7.85 0.498 0.19 0.928 0.428 1.318 0.717l-0.015-0.010c0.217 0.163 0.19 0.598 0.272 0.924 12.060 2.716 23.441 8.502 36.234 7.714 14.314-3.287 28.846-0.733 43.269-1.44 3.993-0.217 7.823 0 10.865-3.422 5.758-6.329 11.761-12.467 17.655-18.66-12.331 1.738-17.737-4.672-21.729-15.727-8.42-22.707-18.389-44.817-27.787-67.171-1.086-2.716-1.358-5.813-4.78-7.008-14.667-5.188-33.436 3.748-36.125 19.258-5.568 32.295 2.037 49.923 35.636 48.239 0.978 0 1.983 0 2.988 0 15.862 0.435 14.287-3.45 14.749 15.020 0 6.166-1.901 8.149-7.986 7.904-9.316-0.489-18.66-0.19-28.004-0.435-19.013-0.489-32.078-9.507-38.923-27.162-3.464-9.179-5.469-19.79-5.469-30.869 0-5.408 0.478-10.704 1.393-15.849l-0.080 0.543c2.906-20.127 16.297-34.876 36.017-38.841 6.62-1.247 14.236-1.96 22.018-1.96 0.987 0 1.972 0.011 2.954 0.034l-0.146-0.003c21.241 0 21.404 0 29.063 19.665 1.657 4.319 3.314 6.573 8.312 6.465 15.319-0.272 30.666-0.217 45.985 0 3.857 0 6.981-0.842 7.442-4.726 2.39-19.638 15.482-21.566 31.345-19.584 1.624 0.102 3.521 0.16 5.432 0.16s3.809-0.058 5.691-0.172l-0.259 0.013c16.732 0 16.732 0 20.236 14.178 8.149-4.726 12.114-14.559 21.431-17.954 1.983-20.018 1.983-20.018-17.845-20.018-22.001 0-44.002 0.353-66.003-0.19-7.823-0.19-12.82 1.385-14.070 9.697-0.344 1.050-0.739 1.948-1.21 2.798l0.042-0.082c-5.432 14.45-8.502 15.971-23.93 13.88-5.269-0.706-5.079-4.672-6.247-7.66-7.307-18.443-7.198-18.524-26.89-18.47-23.223 0-46.664-1.874-68.774 7.986-1.63 0.733-4.346 1.874-3.993-1.684 0.679-6.79-3.585-6.356-8.149-6.356-33.653 0-67.334 0.244-100.988 0-6.981 0-9.479 1.928-9.018 8.963 0.543 8.312 0.19 16.677 0 24.989 0 2.119 0.896 5.622-2.064 5.785-4.101 0.217-2.716-3.803-2.716-6.030-0.326-9.344-0.462-18.66-0.38-28.004 0-4.726-1.032-7.442-6.627-7.415q-107.995 0.407-215.991 0.598c-1.028 0.221-1.938 0.607-2.748 1.133l0.032-0.019c9.697 4.672 20.1 0.462 30.258 2.553 0.407 4.292-3.558 5.785-5.84 8.149-9.398 9.724-19.013 19.176-28.601 28.792-2.526 2.526-5.704 4.672-5.813 8.828l25.451 58.887c0.19-20.181 0.326-40.362 0.625-60.544 0-3.504-1.304-7.361 1.766-10.376-1.548-10.865 4.129-13.798 13.744-12.25 0.449 0.084 0.966 0.132 1.494 0.132s1.045-0.048 1.546-0.14l-0.052 0.008c8.149-1.44 9.887 2.173 9.778 9.833-0.407 30.285-0.543 60.571 0 90.829 0.19 9.316-1.684 13.201-11.761 12.141-10.539-1.086-23.658 3.042-31.127-1.928s-9.398-18.253-13.581-28.004c-6.546-15.374-12.902-30.829-20.236-48.429-11.408 24.799-21.947 47.262-32.024 69.914-2.499 5.622-5.432 7.958-11.897 7.823-9.154-0.19-18.524-1.385-27.732 0.869zM534.246 524.488c1.274-7.043 2.002-15.149 2.002-23.426 0-2.088-0.046-4.165-0.138-6.23l0.010 0.294c0-2.879 0.435-5.269 3.884-5.731 6.329 0 12.63-0.244 19.013-0.272 2.336 0 4.237 0 5.161 3.205 4.998 17.166-1.956 39.194-16.080 49.57 0.48 0.857 1.058 1.591 1.733 2.223l0.005 0.005c13.988 9.344 17.872 22.925 13.988 38.461-3.422 14.26-15.102 18.198-27.895 20.045-1.059 2.716-3.341 2.716-5.731 2.716h-65.514c-2.716 0-5.432 0-6.519-3.205q0.19-46.881 0.407-93.79c0-20.045 0-19.855 20.263-19.475 5.432 0 7.687 1.494 7.388 7.279-0.435 7.958 0.353 15.998-0.244 23.957-0.516 7.116 1.195 10.24 9.099 9.561 9.262-0.761 18.633-0.38 27.949-0.272 0.473 0.066 1.019 0.104 1.574 0.104 3.95 0 7.451-1.92 9.621-4.879l0.023-0.033zM350.061 545.321c0-16.677 0.272-33.328-0.136-49.978-0.163-6.166 1.603-7.958 7.795-7.85 22.001 0.38 44.002 0.163 65.976 0.163 17.058 0 16.759 0 16.569 16.922 0 5.84-1.928 7.307-7.442 7.171-13.988-0.353-28.004-0.299-41.992 0-16.161 0.244-13.907-3.287-14.613 15.075-0.272 7.442 2.716 8.909 9.316 8.746 14.667-0.38 29.362 0.435 43.975-0.353 8.42-0.435 9.479 3.314 8.773 9.968-0.625 5.622 2.716 13.011-8.366 12.413-14.64-0.815-29.362 0.326-43.975-0.407-8.42-0.435-9.968 2.716-9.751 10.267s0 12.685 10.24 12.114c15.618-0.896 31.318 0 46.963-0.326 5.242 0 7.307 1.575 6.763 6.818-0.149 1.498-0.234 3.238-0.234 4.998s0.085 3.5 0.251 5.216l-0.017-0.218c0.462 4.971-1.847 6.166-6.41 6.139-25.668-0.136-51.336-0.19-76.977 0-5.269 0-6.899-1.63-6.818-6.845 0.272-16.813 0.109-33.491 0.109-50.032zM584.115 546.706v-39.955c0-17.438 0-17.030 17.112-17.438 7.497-0.19 9.561 1.901 9.452 9.398-0.462 28.656-0.19 57.311-0.19 85.94 0 19.231 0 19.013-19.231 18.579-5.758 0-7.334-2.010-7.252-7.551 0.326-16.433 0.109-32.757 0.109-49.081z" />
<glyph unicode="&#xe904;" d="M630.751 273.404l-0.679 37.864c0 2.716-1.304 4.183-4.183 4.020s-3.531-2.227-3.558-4.672c0.493-5.557 0.774-12.021 0.774-18.552s-0.281-12.995-0.832-19.382l0.058 0.83h-72.359c-0.855 6.464-1.343 13.939-1.343 21.527 0 6.146 0.32 12.217 0.944 18.197l-0.063-0.747c0.407 3.069-1.738 3.395-3.748 3.015-11.252-2.487-24.177-3.911-37.434-3.911-0.017 0-0.035 0-0.052 0h0.002c-2.445 0-3.531-1.44-4.156-3.531-0.978-6.763 2.2-13.934-1.901-20.399-6.554 8.254-13.863 15.46-21.953 21.703l-0.293 0.217c-2.716 6.193 0 12.522-0.516 18.742s2.037 7.958 8.149 7.904c3.605-0.185 7.827-0.29 12.074-0.29 9.074 0 18.035 0.48 26.861 1.416l-1.098-0.094c14.477 2.010 26.537 7.307 31.318 22.191s4.156 28.846-8.447 40.172l0.706 1.358-1.548-0.244 0.299 0.19c-0.435 3.911-3.287 5.432-6.465 6.763-8.352 3.626-18.079 5.735-28.3 5.735-0.278 0-0.556-0.002-0.833-0.005h0.042c-22.979 0.163-46.012-0.869-68.937 0.353-18.796 1.005-26.51-11.517-35.012-24.093-4.753-2.227-7.66 0.299-11.028 3.477-13.418 12.63-24.717 27.433-39.955 38.027 1.874 5.432 12.494 6.22 17.574 0.896s9.914-10.865 14.423-16.623c3.015-3.884 5.65-4.482 8.149-0.163 11.788 19.719 30.095 21.729 50.711 20.263 27.542-1.82 55.301 1.711 82.844-2.037 4.369-0.67 8.266-1.692 11.992-3.070l-0.421 0.136c3.694-1.277 7.85-5.432 8.719 2.716 0.217 2.064 2.309 2.119 3.966 2.091 33.626-0.978 67.307 2.336 100.852-2.010 3.917-0.688 7.417-1.82 10.682-3.367l-0.252 0.107c3.938-1.63 7.823-4.835 8.366 3.151 0.19 3.096 3.721 2.091 5.84 2.091 40.335 0 80.671 0 121.006 0.244 6.465 0 6.22-3.911 7.089-8.556 13.418 7.877 27.596 8.583 41.992 8.42 19.013-0.217 38.027 0 57.040 0 3.531 0 7.116 0.896 7.904-4.835 0.924-6.926 7.415-0.706 10.43-3.477 1.277-7.524 9.914-9.588 12.087-16.297-2.716-0.733-5.731-1.358-8.529-2.254-17.193-5.432-25.369-18.579-23.549-37.701 1.385-14.858 11.625-24.799 28.493-27.162 8.529-1.168 17.193-1.684 25.804-2.119 9.833-0.516 15.401-4.563 15.455-11.843s-5.731-11.951-15.319-12.060c-13.961 0-27.949-0.543-41.884 0.163-8.149 0.407-10.865-2.363-9.751-10.050 0.117-1.197 0.184-2.587 0.184-3.993s-0.067-2.796-0.197-4.168l0.013 0.175c-0.136-4.237 1.847-5.867 6.057-5.785 16.949 0.299 33.925 0 50.847 0.733 24.038 1.032 41.422 14.124 38.027 44.545 9.398-1.684 12.386-11.489 19.855-15.645 0.006-0.286 0.009-0.623 0.009-0.961 0-24.413-16.784-44.906-39.442-50.57l-0.359-0.076c-1.397 0.994-3.138 1.589-5.019 1.589-0.569 0-1.125-0.054-1.664-0.159l0.055 0.009-88.004-0.163c-1.358 1.222-0.462 4.129-3.232 4.319-1.603 2.227-3.422 1.059-5.297 0.353-8.517-2.959-18.334-4.669-28.551-4.669-1.317 0-2.627 0.028-3.931 0.085l0.186-0.006q-108.837 0.244-217.783-0.054zM661.173 347.882c2.037 1.494 3.395 2.472 4.699 3.477 8.174 6.067 13.414 15.688 13.414 26.533 0 3.592-0.575 7.050-1.638 10.287l0.066-0.233c-4.156 12.685-13.581 18.687-26.972 20.073-24.609 2.58-49.272 0.57-73.907 1.412-6.166 0.217-6.003-3.422-6.003-7.687q0-49.978 0-99.983c0-2.254-0.815-5.65 1.44-6.465 3.854-1.193 8.286-1.88 12.877-1.88 3.788 0 7.467 0.468 10.983 1.349l-0.311-0.066c4.509 0.869 1.901 6.953 2.173 10.647 0.788 9.914-4.074 22.925 1.82 28.982 6.356 6.573 19.529 2.037 29.688 2.064 17.709 0 22.436-5.432 22.571-23.685 0-20.236 1.738-21.539 21.729-18.742 2.499 0.353 4.264 0.733 5.188 3.531 5.405 15.971-2.879 40.362-17.818 50.385zM696.157 352.173c0-17.003 0-34.007 0-51.010 0-3.83-0.244-7.225 5.432-7.198q39.52 0.244 79.014 0c4.346 0 6.030 1.657 5.731 5.894-0.143 1.348-0.224 2.912-0.224 4.495s0.081 3.147 0.24 4.688l-0.016-0.193c0.978 6.981-1.63 9.181-8.746 8.936-15.645-0.543-31.318 0-46.99-0.299-6.22 0-8.529 2.091-7.931 8.149 0.13 1.197 0.204 2.586 0.204 3.993s-0.074 2.795-0.218 4.163l0.015-0.17c-0.679 6.003 1.494 8.149 7.795 8.149 15.319-0.435 30.693 0.462 45.985-0.353 9.398-0.516 8.339 4.971 7.986 10.593s2.988 12.359-7.741 11.815c-14.966-0.761-30.014 0.462-44.98-0.435-9.398-0.543-9.099 4.346-9.099 10.865s-0.462 12.331 9.588 11.571c12.576-0.951 25.315-0.217 38.027-0.217 16.596 0 16.297 0 16.297 16.297 0 6.302-1.983 7.823-8.149 7.741q-37.483-0.435-74.994 0c-5.622 0-7.497-1.548-7.388-7.279 0.38-16.867 0.163-33.599 0.163-50.195zM861.002 383.491h12.006c21.213 0 21.729 0.761 19.312 22.137-0.462 3.938-1.901 5.161-5.432 5.106-19.638-0.326-39.33 1.141-58.887-1.277-15.464-1.977-27.367-14.817-27.867-30.534l-0.001-0.050c-1.059-17.628 6.709-29.145 23.060-33.572 9.242-2.441 19.852-3.843 30.79-3.843 0.634 0 1.268 0.005 1.9 0.014l-0.096-0.001c8.149 0 14.124-3.124 14.124-11.843s-6.084-11.951-14.070-11.978c-12.006 0-23.984 0-35.989 0-17.356 0-18.171-1.086-16.080-18.47 0.462-3.857 1.901-5.188 5.432-5.134 20.29 0.272 40.743-1.304 60.87 1.657 16.867 2.499 25.967 14.206 26.32 32.268 0.38 20.534-6.41 29.552-24.446 34.061-9.289 2.309-18.552 1.032-27.814 1.467-0.349-0.017-0.758-0.027-1.169-0.027-3.437 0-6.714 0.689-9.699 1.936l0.166-0.062c-3.693 1.38-6.275 4.878-6.275 8.979 0 0.804 0.099 1.586 0.286 2.332l-0.014-0.066c0.924 5.432 4.726 6.872 9.452 6.899 8.149 0.027 16.134-0.027 24.12 0z" />
<glyph unicode="&#xe905;" d="M742.142 601.546c-5.894 6.193-11.897 12.331-17.655 18.66-3.069 3.395-6.899 3.205-10.865 3.422-14.423 0.706-28.954-1.847-43.269 1.44 35.989 0.163 71.979 0.272 107.968 0.57 0.288 0.041 0.621 0.064 0.96 0.064 3.081 0 5.714-1.922 6.764-4.632l0.017-0.049c1.467-3.205 2.39-6.845 5.432-9.208 0.598 0.516 1.44 0.924 1.412 1.222-1.467 11.245 3.993 13.364 14.233 12.793 16.949-0.951 34.007-0.761 50.956 0 8.366 0.353 14.124-1.222 16.596-9.86 0.489-1.684 1.114-3.884 3.45-4.373 3.721 14.015 3.721 14.015 20.073 14.015 15.672 0 31.345-0.19 46.99 0 5.432 0 7.497-1.168 7.469-7.089q-0.353-72.495 0-144.963c0-6.329-2.119-7.85-8.149-7.768-19.638 0.326-39.33 0.462-58.968 0-0.464-0.054-1.001-0.085-1.546-0.085-5.581 0-10.403 3.249-12.677 7.96l-0.037 0.084c-2.553 4.21-2.499 11.381-9.833 11.843-9.316 3.395-13.228 13.228-21.431 17.954v68.23c14.314-19.747 28.031-39.14 38.027-60.245 8.991-18.714 21.213-25.641 41.232-22.707 6.492 0.978 9.018 1.684 8.936 8.882-0.435 28.982-0.19 57.963-0.19 86.918 0 16.705 0 16.053-16.705 16.895-9.642 0.516-11.489-2.933-11.245-11.707 0.598-21.458 0.19-42.943 0.19-64.428-11.571 15.971-21.295 32.431-31.046 48.891-16.514 27.949-16.514 27.787-48.891 27.162-6.139 0-7.958-1.847-7.877-7.958 0.272-19.312 0-38.624-0.136-57.963-6.845 4.237-11.598 10.702-17.221 16.297-2.716 2.716-4.59 3.151-6.79-0.163-3.64 8.529-8.42 16.759-10.729 25.614-4.862 18.796-14.885 28.846-35.446 24.283z" />
<glyph unicode="&#xe906;" d="M357.395 431.241c15.238-10.729 26.537-25.532 39.955-38.027 3.368-3.178 6.274-5.704 11.028-3.477l2.091-0.407c-3.531-4.726-7.144-9.398-10.593-14.178s-6.302-4.971-10.24-0.462c-8.149 9.262-16.732 18.063-24.799 27.352-2.826 3.478-7.103 5.683-11.896 5.683-0.354 0-0.705-0.012-1.053-0.036l0.047 0.003c-29.878-0.244-59.892 0-89.851-0.163-2.716 0-6.057 1.086-8.366-1.766-5.432 1.684-3.422-2.716-3.422-4.563q-0.163-49.978 0-99.955c0-3.124-1.059-7.062 4.047-7.578 21.92 0 44.084 2.119 65.704-0.435 28.004-3.314 48.158 5.867 64.564 28.058 8.393 11.381 10.865 11.381 18.28-0.217 14.341-22.571 33.192-31.372 59.756-27.732 15.917 2.2 16.297 0.407 17.356 16.161 8.382-6.46 15.691-13.665 22.048-21.662l0.198-0.258c0.299-16.596 0.299-16.596-15.944-16.596-19.665 0-39.385 0.761-58.995-0.299-10.865-0.598-17.981 3.287-24.446 11.489-10.023 12.739-10.865 12.983-21.729 0.57-7.904-9.154-16.487-12.277-28.52-12.033-38.651 0.761-77.33 0.489-116.008 0-7.958 0-10.865 1.494-10.865 10.213 0.462 47.017 0.38 94.034 0 141.024 0 7.497 1.956 9.534 9.452 9.479 40.716-0.326 81.458-0.19 122.201-0.19z" />
<glyph unicode="&#xe907;" d="M1023.837 323.626c-7.469 4.156-10.457 13.961-19.855 15.645v0c0.11 0.336 0.174 0.723 0.174 1.125 0 1.279-0.645 2.407-1.628 3.077l-0.013 0.008c-2.716 10.457-10.484 15.482-20.29 18.090-0.19 4.129-3.748 5.921-5.921 8.692-3.368 4.264-9.181 6.627-10.131 12.793 3.966 0 7.931 0.244 11.897 0.244 21.729 0 21.539 0 20.236 21.729-0.299 4.916-1.983 6.111-6.492 6.030-17.845-0.326-35.718-0.353-53.563-0.516-2.173 6.845-10.865 8.909-12.087 16.297 9.561 3.585 19.556 3.314 29.498 3.368 17.601 0 35.31-0.217 52.775 0.163 6.111 0 8.149-1.657 7.823-7.85-0.516-10.593-0.244-21.241-0.136-31.861 0.19-16.297-1.901-32.974 5.731-48.728 1.619-3.637 2.562-7.88 2.562-12.343 0-2.11-0.211-4.171-0.612-6.163l0.033 0.199z" />
<glyph unicode="&#xe908;" d="M630.751 273.404q108.919 0 217.838 0c1.117-0.050 2.428-0.078 3.745-0.078 10.216 0 20.033 1.709 29.181 4.857l-0.63-0.189c1.874 0.706 3.694 1.874 5.297-0.353-9.181-6.302-19.774-7.958-30.421-7.986q-108.946-0.326-217.919 0c-2.716-0.109-7.334-2.254-7.089 3.748z" />
<glyph unicode="&#xe909;" d="M536.011 625.149c-2.852-2.526-6.329-1.575-9.561-1.575h-258.526c1.277 2.988 3.966 1.928 6.084 1.928q129.507 0 259.015 0c1.124-0.073 2.15-0.198 3.157-0.378l-0.169 0.025z" />
<glyph unicode="&#xe90a;" d="M128.53 467.339l91.264 0.244c0-3.259-2.119-3.775-4.59-3.721-29.117 0.462-58.262-1.141-87.352 0.788z" />
<glyph unicode="&#xe90b;" d="M889.413 273.295l88.004 0.163c0.484 0.095 1.040 0.15 1.609 0.15 1.88 0 3.622-0.595 5.046-1.607l-0.027 0.018c-29.878-5.161-60.163-1.467-90.232-2.553-2.689-0.109-4.536 0.733-4.4 3.83z" />
<glyph unicode="&#xe90c;" d="M549.891 273.377h72.359c0.951-3.259-0.625-4.101-3.585-4.101q-32.594 0-64.971 0c-2.771 0.163-4.672 0.733-3.803 4.101z" />
<glyph unicode="&#xe90d;" d="M225.796 469.458c16.596-4.4 33.463-1.059 50.168-1.874-0.625-4.319-3.993-3.721-6.899-3.748-11.951 0-23.902 0-35.854 0-4.020 0-7.415 0.462-7.415 5.622z" />
<glyph unicode="&#xe90e;" d="M504.069 307.927c0.625 2.091 1.711 3.585 4.156 3.531 0.015 0 0.032 0 0.050 0 13.257 0 26.181 1.425 38.628 4.129l-1.195-0.218c2.010 0.38 4.156 0 3.748-3.015-14.912-3.911-30.204-3.64-45.387-4.427z" />
<glyph unicode="&#xe90f;" d="M634.092 617.354c0-0.326 0-0.761-0.272-0.924-0.376-0.279-0.806-0.517-1.267-0.694l-0.037-0.013c0.543 8.556-5.297 7.904-11.028 7.85q-24.853-0.163-49.706 0c-3.178 0-6.655-1.059-9.507 1.494 21.974 0.163 43.948 0 65.922 0.598 7.415 0.244 5.785-4.292 5.894-8.312z" />
<glyph unicode="&#xe910;" d="M233.103 623.683c-16.487 0-33.002 0-49.489 0-2.58 0-5.432-0.625-7.442 1.684l51.607 0.272c1.956-0.081 4.020 0.027 5.324-1.956z" />
<glyph unicode="&#xe911;" d="M128.53 467.339l-0.679-2.716c-7.632 4.889-7.334 13.581-9.996 20.833 7.035-3.966 6.682-12.331 10.675-18.117z" />
<glyph unicode="&#xe912;" d="M622.331 310.616c0 2.445 0.489 4.509 3.558 4.672s4.074-1.358 4.183-4.020c-0.861 0.21-1.848 0.33-2.864 0.33-1.761 0-3.437-0.361-4.959-1.013l0.082 0.031z" />
<glyph unicode="&#xe913;" d="M115.791 489.503c2.010-0.706 2.146-2.39 2.173-4.129z" />
<glyph unicode="&#xe914;" d="M180.056 602.361c9.208-2.363 18.579-1.168 27.814-0.951 6.383 0.136 9.398-2.2 11.897-7.823 10.077-22.653 20.616-45.116 32.024-69.914 7.334 17.601 13.581 33.056 20.236 48.429 4.156 9.751 6.111 23.060 13.581 28.004s20.589 0.842 31.127 1.928c10.077 1.059 11.951-2.716 11.761-12.141-0.598-30.258-0.462-60.544 0-90.829 0-7.66-1.711-11.272-9.778-9.833-0.449 0.084-0.966 0.132-1.494 0.132s-1.045-0.048-1.546-0.14l0.052 0.008c-9.615-1.548-15.292 1.277-13.744 12.25 0 22.734 0.244 45.442 0.19 68.176 0 0.733 2.526 6.003-2.58 2.716l-25.586-58.778c-2.448-3.992-4.799-8.648-6.772-13.497l-0.235-0.654c-2.716-8.447-7.795-10.403-16.297-10.43s-12.793 2.336-16.107 10.457q-15.727 38.57-34.74 75.89c0-25.559-0.299-51.091 0.19-76.623 0.136-7.551-1.956-9.778-9.452-9.398-12.63 0.625-25.315 0.462-38.027 0-5.758-0.19-9.615 1.168-11.028 7.062-3.613 14.803-12.956 19.529-27.705 17.302-3.893-0.486-8.399-0.764-12.97-0.764s-9.076 0.278-13.501 0.817l0.532-0.053c-7.931 0.706-11.68-2.173-14.83-9.479-2.39-5.595-1.63-15.102-11.734-14.993-28.819 0.326-23.902-3.124-14.423 20.1 11.652 28.574 24.174 56.768 35.962 85.288 2.254 5.432 4.943 7.768 10.865 7.388 10.62-0.625 23.115 2.879 31.372-1.63s9.344-18.171 13.581-27.868c9.778-22.87 19.312-45.822 28.982-68.747 0.978-2.282 1.195-5.052 4.536-6.953 0 32.594 0 64.346 0 96.234 0.081 5.785 0.896 9.887 7.85 9.316zM87.868 537.58c10.566 0 19.855 0 29.117 0 3.395 0 6.383 0.462 4.672 4.889-4.943 12.875-10.131 25.641-16.080 40.743z" />
<glyph unicode="&#xe915;" d="M82.192 465.329h-77.601v2.173c16.487 0 33.002 0.38 49.462-0.136 9.425-0.299 19.013 2.472 28.275-1.983z" />
<glyph unicode="&#xe916;" d="M812.41 535.542c0 19.339 0.407 38.651 0.136 57.963 0 6.111 1.738 7.85 7.877 7.958 32.594 0.625 32.594 0.788 48.891-27.162 9.751-16.46 19.475-32.92 31.046-48.891 0 21.485 0.407 42.97-0.19 64.428-0.244 8.773 1.603 12.223 11.245 11.707 16.677-0.842 16.705-0.19 16.705-16.895 0-28.982-0.244-57.963 0.19-86.918 0-7.198-2.445-7.904-8.936-8.882-20.018-2.933-32.241 3.993-41.232 22.707-10.131 21.105-23.848 40.498-38.027 60.245v-68.23c-3.504-14.178-3.504-14.178-20.236-14.178-1.624 0.102-3.521 0.16-5.432 0.16s-3.809-0.058-5.691-0.172l0.259 0.013c-15.862-1.983-28.954 0-31.345 19.584-0.462 3.884-3.585 4.78-7.442 4.726-15.319-0.217-30.666-0.272-45.985 0-4.998 0-6.655-2.146-8.312-6.465-7.66-19.692-7.823-19.556-29.063-19.665-0.836-0.020-1.82-0.032-2.808-0.032-7.782 0-15.398 0.713-22.785 2.078l0.767-0.118c-19.801 3.966-33.11 18.714-36.017 38.841-0.836 4.602-1.313 9.898-1.313 15.306 0 11.079 2.005 21.69 5.673 31.489l-0.203-0.62c6.845 17.764 19.964 26.782 38.923 27.162 9.344 0.244 18.687 0 28.004 0.435 6.084 0.326 8.149-1.738 7.986-7.904-0.462-18.47 1.114-14.586-14.749-15.020-1.005 0-2.010 0-2.988 0-33.599 1.684-41.204-15.944-35.636-48.239 2.716-15.509 21.458-24.446 36.125-19.258 3.422 1.195 3.694 4.373 4.78 7.008 9.398 22.354 19.366 44.464 27.787 67.171 4.101 11.055 9.507 17.465 21.729 15.727 20.561 4.563 30.584-5.432 35.528-24.446 2.309-8.855 7.089-17.085 10.729-25.614l22.599-55.709 3.124 0.924c-0.733 12.929 2.553 25.912-1.711 38.787zM747.846 584.135l-19.692-46.175h37.755c-5.785 14.83-11.381 29.090-18.063 46.175z" />
<glyph unicode="&#xe917;" d="M536.038 602.632c12.793-1.847 24.446-5.785 27.895-20.045 3.775-15.645 0-28.982-14.151-38.352-0.68-0.636-1.258-1.37-1.715-2.182l-0.023-0.045c14.124-10.376 21.078-32.404 16.080-49.57-0.924-3.205-2.716-3.232-5.161-3.205-6.329 0-12.63 0.163-19.013 0.272-0.896 11.87 2.363 24.446-5.758 35.093-2.186 3.071-5.733 5.049-9.743 5.049-0.482 0-0.956-0.029-1.423-0.084l0.056 0.005c-9.316 0-18.687-0.489-27.949 0.272-7.904 0.679-9.615-2.445-9.099-9.561 0.598-7.958-0.19-15.998 0.244-23.957 0.299-5.785-1.874-7.171-7.388-7.279-20.263-0.38-20.208-0.57-20.263 19.475q-0.163 46.881-0.407 93.79c25.885 1.331 51.852 0.679 77.819 0.326zM507.22 579.409v-0.38c-5.432 0-10.675 0-15.998 0-3.096 0-5.134-0.788-5.079-4.427 0-6.329 0-12.657 0-19.013 0-2.309 1.005-3.857 3.504-3.803 12.63 0.19 25.315 0 37.891 0.815 8.909 0.679 9.154 8.828 9.588 15.265s-4.129 9.561-10.050 10.213c-6.573 0.733-13.228 0.924-19.855 1.331z" />
<glyph unicode="&#xe918;" d="M350.061 545.321c0 16.65 0.163 33.328 0 49.978 0 5.215 1.548 6.899 6.818 6.845 25.641-0.217 51.309-0.163 76.977 0 4.563 0 6.872-1.168 6.41-6.139-0.149-1.498-0.234-3.238-0.234-4.998s0.085-3.5 0.251-5.216l-0.017 0.218c0.543-5.242-1.521-6.926-6.763-6.818-15.645 0.272-31.345-0.57-46.963 0.326-10.267 0.57-10.050-4.753-10.24-12.114s1.331-10.702 9.751-10.267c14.613 0.733 29.335-0.407 43.975 0.407 11.136 0.598 7.741-6.79 8.366-12.413 0.706-6.655-0.353-10.403-8.773-9.968-14.613 0.788-29.308 0-43.975 0.353-6.6 0.163-9.588-1.304-9.316-8.746 0.706-18.361-1.548-14.83 14.613-15.075 13.988-0.217 28.004-0.272 41.992 0 5.432 0 7.388-1.331 7.442-7.171 0.19-16.922 0.489-16.922-16.569-16.922-21.974 0-43.975 0.217-65.976-0.163-6.193 0-7.958 1.684-7.795 7.85 0.299 16.596 0.027 33.246 0.027 50.032z" />
<glyph unicode="&#xe919;" d="M584.115 546.597c0 16.297 0.217 32.594 0 48.891 0 5.432 1.494 7.415 7.252 7.551 19.231 0.407 19.231 0.652 19.231-18.579 0-28.629-0.272-57.284 0.19-85.94 0-7.497-1.956-9.588-9.452-9.398-17.085 0.407-17.112 0-17.112 17.438z" />
<glyph unicode="&#xe91a;" d="M536.038 602.632c-25.967 0.353-51.933 1.005-77.873-0.326 1.086 3.259 3.83 3.205 6.519 3.205h65.623c2.39-0.027 4.672-0.217 5.731-2.879z" />
<glyph unicode="&#xe91b;" d="M299.513 572.483c5.106 3.259 2.58-2.010 2.58-2.716 0-22.734 0-45.442-0.19-68.176-3.069 3.015-1.711 6.872-1.766 10.376-0.299 20.181-0.435 40.362-0.625 60.516z" />
<glyph unicode="&#xe91c;" d="M534.246 524.596c8.149-10.675 4.862-23.223 5.758-35.093-3.45 0.462-3.993 2.852-3.884 5.731 0.081 1.772 0.128 3.849 0.128 5.936 0 8.276-0.728 16.383-2.124 24.258l0.122-0.833z" />
<glyph unicode="&#xe91d;" d="M253.583 405.709c2.309 2.716 5.432 1.738 8.366 1.766 29.878 0 59.892 0 89.851 0.163 0.301 0.021 0.652 0.033 1.006 0.033 4.792 0 9.070-2.204 11.874-5.655l0.022-0.028c8.149-9.289 16.677-18.090 24.799-27.352 3.938-4.509 6.953-4.101 10.24 0.462s7.062 9.452 10.593 14.178c5.079 1.059 7.442 5.432 10.050 9.045 5.432 7.388 11.951 9.805 21.132 9.452 20.507-0.706 41.069-0.462 61.576-0.136 15.292 0.244 30.34-0.326 44.573-6.845l-0.299-0.163v-0.815l0.761-0.326c12.603-11.326 13.201-25.451 8.447-40.172s-16.84-20.181-31.318-22.191c-7.727-0.842-16.689-1.322-25.763-1.322-4.247 0-8.469 0.105-12.664 0.313l0.59-0.023c-6.084 0-8.529-1.928-8.149-7.904s-2.119-12.549 0.516-18.742c-1.195-15.754-1.44-13.961-17.356-16.161-26.646-3.64-45.496 5.161-59.756 27.732-7.361 11.598-9.887 11.598-18.28 0.217-16.297-22.191-36.56-31.372-64.564-28.058-21.729 2.553-43.785 0.462-65.704 0.435zM317.576 385.066c-13.201 0-22.246-0.625-31.155 0.19s-8.746-4.292-8.393-10.349c0.353-5.432-2.309-12.196 8.149-11.598 13.934 0.788 27.977-0.353 41.911 0.38 8.474 0.435 10.023-2.445 10.484-10.484 0.625-10.62-3.096-13.011-12.82-12.25-10.566 0.842-21.268 0.19-31.915 0.19-15.998 0-15.591 0-15.89-15.754-0.136-7.279 2.472-9.126 9.181-8.692 3.586 0.409 7.741 0.642 11.951 0.642s8.366-0.233 12.455-0.687l-0.504 0.045c24.446-3.803 42.59 3.884 56.741 24.446 5.106 7.469 6.627 10.702 0.598 18.687-14.206 18.905-29.362 32.866-50.793 25.233zM451.755 396.284l-39.004-41.693c-1.956-2.064-3.45-3.911-0.869-6.736 12.983-14.369 25.858-28.819 39.874-44.491zM501.57 355.378c4.292 0 8.61 0 12.929 0 10.593 0.163 17.275 5.432 17.465 13.581s-7.225 15.754-16.867 16.297-19.882 0-29.878 0.217c-4.292 0-5.432-1.657-5.894-5.813-2.254-24.174-2.363-24.174 21.186-24.174z" />
<glyph unicode="&#xe91e;" d="M661.173 347.882c14.939-10.023 23.223-34.414 17.981-50.385-0.924-2.716-2.716-3.178-5.188-3.531-20.1-2.716-21.729-1.494-21.729 18.742 0 18.334-4.862 23.685-22.571 23.685-10.159 0-23.332 4.509-29.688-2.064-5.894-6.057-1.032-19.013-1.82-28.982-0.272-3.694 2.336-9.778-2.173-10.647-3.205-0.815-6.884-1.283-10.672-1.283-4.592 0-9.023 0.687-13.196 1.964l0.319-0.084c-2.254 0.815-1.44 4.21-1.44 6.465q0 49.978 0 99.983c0 4.264-0.163 7.904 6.003 7.687 24.636-0.842 49.299 1.168 73.907-1.412 13.309-1.385 22.816-7.388 26.972-20.073 0.997-3.004 1.572-6.462 1.572-10.054 0-10.845-5.24-20.466-13.326-26.47l-0.088-0.063c-1.467-1.005-2.825-1.983-4.862-3.477zM621.924 357.225v0.272c5.65 0 11.326 0 16.976 0 10.593-0.272 11.299 7.252 11.707 14.858s-4.509 10.865-11.218 11.001c-9.289 0.38-18.714-0.625-27.922 0.353-9.996 1.059-12.331-2.716-11.788-12.060 0.815-14.369 0.217-14.396 14.26-14.396z" />
<glyph unicode="&#xe91f;" d="M696.157 352.173c0 16.677 0.217 33.328-0.136 50.005 0 5.731 1.766 7.361 7.388 7.279q37.538-0.353 74.994 0c6.030 0 8.149-1.44 8.149-7.741 0-16.297 0.326-16.297-16.297-16.297-12.657 0-25.396-0.733-38.027 0.217-10.050 0.761-9.588-4.726-9.588-11.571s-0.299-11.408 9.099-10.865c14.966 0.896 30.014-0.326 44.98 0.435 10.729 0.543 7.442-6.573 7.741-11.815s1.412-11.109-7.986-10.593c-15.292 0.815-30.666 0-45.985 0.353-6.302 0.163-8.474-2.064-7.795-8.149 0.13-1.197 0.204-2.586 0.204-3.993s-0.074-2.795-0.218-4.163l0.015 0.17c-0.598-6.003 1.711-8.149 7.931-8.149 15.672 0.38 31.345-0.244 46.99 0.299 7.116 0.244 9.724-1.956 8.746-8.936-0.143-1.348-0.224-2.912-0.224-4.495s0.081-3.147 0.24-4.688l-0.016 0.193c0.299-4.237-1.385-5.894-5.731-5.894q-39.52 0.19-79.014 0c-5.65 0-5.432 3.368-5.432 7.198 0 17.193-0.027 34.197-0.027 51.2z" />
<glyph unicode="&#xe920;" d="M938.305 410.707c17.845 0.163 35.718 0.19 53.563 0.516 4.509 0 6.193-1.114 6.492-6.030 1.304-21.729 1.467-21.729-20.236-21.729-3.966 0-7.931-0.163-11.897-0.244-7.578 0.136-15.156 0.326-22.734 0.38-5.269 0-8.8-2.227-9.724-7.795-1.005-6.030 1.793-9.126 7.334-10.865 2.436-0.779 5.238-1.228 8.145-1.228 0.202 0 0.403 0.002 0.603 0.006l-0.030-0.001c10.865 0 21.729 0.516 32.458-1.928 9.805-2.716 17.465-7.632 20.29-18.090-0.272-1.657-0.299-3.259 1.467-4.21v0c3.422-30.421-13.961-43.459-38.027-44.545-16.922-0.733-33.898-0.435-50.847-0.733-4.21 0-6.193 1.548-6.057 5.785 0.117 1.197 0.184 2.587 0.184 3.993s-0.067 2.796-0.197 4.168l0.013-0.175c-1.086 7.687 1.63 10.457 9.751 10.050 13.934-0.706 27.922-0.299 41.884-0.163 9.588 0 15.346 4.808 15.319 12.060s-5.622 11.326-15.455 11.843c-8.61 0.435-17.275 0.951-25.804 2.119-16.867 2.282-27.162 12.223-28.493 27.162-1.82 19.013 6.356 32.214 23.549 37.701 2.716 0.598 5.595 1.222 8.447 1.956z" />
<glyph unicode="&#xe921;" d="M861.002 383.491c-7.986 0-15.971 0-23.984 0-4.726 0-8.529-1.575-9.452-6.899-0.173-0.681-0.272-1.462-0.272-2.266 0-4.101 2.582-7.599 6.209-8.957l0.066-0.022c2.819-1.185 6.095-1.874 9.532-1.874 0.411 0 0.82 0.010 1.227 0.029l-0.057-0.002c9.262-0.435 18.524 0.842 27.814-1.467 18.063-4.509 24.853-13.581 24.446-34.061-0.353-18.063-9.452-29.878-26.32-32.268-20.181-2.961-40.58-1.385-60.87-1.657-3.667 0-5.106 1.277-5.432 5.134-2.091 17.384-1.277 18.47 16.080 18.47 12.006 0 23.984 0 35.989 0 7.986 0 14.043 3.314 14.070 11.978s-6.111 11.843-14.124 11.843c-0.537-0.008-1.17-0.013-1.804-0.013-10.938 0-21.548 1.402-31.661 4.035l0.871-0.193c-16.297 4.427-24.12 15.944-23.060 33.572 0.455 15.717 12.246 28.547 27.459 30.62l0.165 0.018c19.556 2.417 39.249 0.951 58.887 1.277 3.64 0 5.079-1.168 5.432-5.106 2.445-21.376 1.901-22.137-19.312-22.137z" />
<glyph unicode="&#xe922;" d="M547.663 400.793c-14.233 6.519-29.28 7.089-44.573 6.845-20.507-0.326-41.069-0.57-61.576 0.136-9.181 0.353-15.727-2.064-21.132-9.452-2.716-3.585-4.971-7.986-10.050-9.045l-2.091 0.407c8.502 12.576 16.297 25.098 35.012 24.093 22.925-1.222 45.958-0.19 68.937-0.353 0.118 0.001 0.258 0.001 0.398 0.001 10.339 0 20.174-2.159 29.079-6.050l-0.468 0.182c3.178-1.385 6.030-2.852 6.465-6.763z" />
<glyph unicode="&#xe923;" d="M548.207 399.489l-0.761 0.326v0.815l1.548 0.217z" />
<glyph unicode="&#xe924;" d="M812.41 535.542c4.264-12.875 0.978-25.858 1.793-38.787l-3.124-0.924-22.68 55.736c2.2 3.314 4.047 2.716 6.79 0.163 5.622-5.487 10.376-11.843 17.221-16.188z" />
<glyph unicode="&#xe925;" d="M253.583 405.709l0.57-112.097c-5.106 0.516-4.047 4.455-4.047 7.578q0 49.978 0 99.955c0.054 1.983-1.874 6.247 3.477 4.563z" />
<glyph unicode="&#xe926;" d="M982.279 361.598c-10.702 2.445-21.594 1.847-32.458 1.928-0.171-0.004-0.372-0.006-0.574-0.006-2.907 0-5.709 0.449-8.341 1.282l0.196-0.053c-5.432 1.793-8.339 4.889-7.334 10.865 0.924 5.568 4.455 7.823 9.724 7.795 7.578 0 15.156-0.244 22.734-0.38 0.951-6.166 6.763-8.529 10.131-12.793 2.173-2.716 5.758-4.509 5.921-8.637z" />
<glyph unicode="&#xe927;" d="M1004.036 339.298c-1.766 0.951-1.738 2.553-1.467 4.21 0.996-0.678 1.641-1.806 1.641-3.085 0-0.402-0.064-0.789-0.181-1.151l0.007 0.026z" />
<glyph unicode="&#xe928;" d="M87.868 537.688l17.709 45.496c5.948-14.993 11.136-27.759 16.080-40.743 1.711-4.427-1.277-4.916-4.672-4.889-9.262 0.163-18.552 0.136-29.117 0.136z" />
<glyph unicode="&#xe929;" d="M747.846 584.135c6.682-17.030 12.277-31.345 18.063-46.175h-37.755z" />
<glyph unicode="&#xe92a;" d="M507.22 579.409c6.627-0.407 13.282-0.598 19.882-1.304 5.921-0.652 10.512-3.911 10.050-10.213s-0.679-14.586-9.588-15.265c-12.576-0.924-25.26-0.625-37.891-0.815-2.499 0-3.504 1.494-3.504 3.803 0 6.329 0 12.657 0 19.013 0 3.64 1.983 4.482 5.079 4.427 5.432 0 10.675 0 15.998 0z" />
<glyph unicode="&#xe92b;" d="M317.576 385.066c21.431 7.497 36.587-6.465 50.711-25.179 6.030-7.986 4.509-11.218-0.598-18.687-14.151-20.67-32.404-28.357-56.741-24.446-3.586 0.409-7.741 0.642-11.951 0.642s-8.366-0.233-12.455-0.687l0.504 0.045c-6.709-0.435-9.316 1.412-9.181 8.692 0.299 15.754 0 15.754 15.89 15.754 10.647 0 21.349 0.652 31.915-0.19 9.724-0.761 13.445 1.63 12.82 12.25-0.462 8.149-2.010 10.865-10.484 10.484-13.934-0.733-27.977 0.407-41.911-0.38-10.376-0.598-7.714 6.084-8.149 11.598-0.353 6.057-0.516 11.136 8.393 10.349s18.035-0.244 31.236-0.244z" />
<glyph unicode="&#xe92c;" d="M451.755 396.42v-92.839c-14.015 15.672-26.89 30.122-39.874 44.491-2.58 2.716-1.086 4.672 0.869 6.736z" />
<glyph unicode="&#xe92d;" d="M501.57 355.514h-1.005c-23.549 0-23.441 0-21.186 24.174 0.38 4.156 1.603 5.894 5.894 5.813 9.941-0.217 19.882 0.244 29.878-0.217s17.058-7.958 16.867-16.297-6.872-13.391-17.465-13.581c-4.373 0.027-8.692 0.109-12.983 0.109z" />
<glyph unicode="&#xe92e;" d="M621.924 357.225h-7.986c-14.043 0-13.581 0-14.26 14.396-0.543 9.425 1.793 13.119 11.788 12.060 9.208-0.978 18.633 0 27.922-0.353 6.709-0.272 11.625-3.259 11.218-11.001s-1.114-15.129-11.707-14.858c-5.65 0-11.326 0-16.976 0z" />
<glyph unicode="&#xe92f;" glyph-name="Bandera" d="M990.628 848.357c-11.526-4.458-23.031-9.016-34.818-12.71-35.2-11.084-71.504-16.586-108.189-19.417-22.383-1.889-48.441-2.966-74.75-2.966-17.413 0-34.715 0.472-51.895 1.403l2.393-0.104c-28.694 1.586-57.367 3.173-86.081 4.478-8.996 0.422-16.465-2.47-19.537-12.048-4.377-13.654 4.197-24.216 20.903-25.541 26.304-2.008 52.629-3.895 79.013-5.020 14.126-0.733 30.67-1.15 47.311-1.15 46.789 0 92.807 3.301 137.833 9.683l-5.171-0.601c29.428 4.347 54.623 9.658 79.264 16.318l-4.769-1.098c6.867 1.787 8.835 0.161 6.024-6.526-0.763-1.827-1.104-3.875-2.008-5.642-12.269-24.859-23.393-50.32-37.509-74.295-53.693-91.061-123.891-167.323-207.985-230.976-39.517-29.838-81.744-54.215-130.517-65.721-8.935-2.008-10.341 0.201-10.301 8.674 0.301 81.624 0.181 163.247 0.181 244.871q0 121.401 0 242.863c0 19.979-5.582 25.401-25.782 25.24-33.841-0.33-66.79-2.509-99.198-6.443l4.242 0.42c-63.030-7.369-124.172-21.947-183.086-45.681-23.614-9.498-46.284-20.903-68.853-32.529-5.903-3.052-8.313-2.008-8.454 4.899-2.48 56.384-48.793 101.156-105.563 101.156-2.967 0-5.905-0.122-8.81-0.362l0.381 0.025c-52.93-4.859-94.475-50.038-94.736-103.069-0.001-0.121-0.001-0.264-0.001-0.406 0-57.646 46.447-104.444 103.96-105.011h0.054c18.654-0.321 18.754-0.281 23.252-17.53q84.756-326.595 169.512-653.19 16.064-62.046 32.127-124.052c4.016-15.381 12.831-22.529 24.096-19.678s15.943 11.947 12.048 27.409c-10.441 42.167-21.385 84.073-32.288 126.060q-58.13 223.888-116.341 447.775c-18.373 70.761-36.485 141.561-54.858 212.322-2.169 8.373-2.63 16.064 5.12 21.686 25.903 18.895 51.062 38.854 79.535 54.034 89.917 48.010 186.74 69.154 287.681 73.672 17.429 0.783 17.449 0.462 17.449-17.409v-183.648c0-53.854-0.12-107.707 0-161.581 0-9.377-2.992-14.457-13.032-14.819-6.953-0.509-13.371-1.543-19.591-3.078l0.797 0.166c-71.724-14.698-138.268-42.689-201.479-79.053-10.040-5.823-20.923-10.622-29.577-18.714-8.032-7.53-9.357-15.722-4.177-24.216 6.024-9.799 17.007-11.064 29.959-3.193 71.102 43.131 146.159 76.303 228.566 91.061 7.49 1.365 9.317 0 9.237-7.349-0.321-25.1-0.181-50.199-0.12-75.278 0-21.786 5.823-27.288 27.609-26.545 2.329 0 4.679 0.281 7.008 0.522 40.159 4.377 77.106 18.975 111.723 39.075 66.263 38.493 122.787 88.913 174.13 145.296 49.496 54.356 92.687 113.289 124.996 179.632 13.052 26.786 24.377 54.356 25.642 84.716 1.345 24.879-9.417 32.147-32.569 23.192zM103.972 788.119c-36.813 1.030-66.263 31.118-66.263 68.085 0 0.002 0 0.004 0 0.005v0c0.261 36.143 30.561 66.484 66.544 66.584s67.367-31.184 67.427-67.267c0.1-35.019-33.372-68.17-67.708-67.407z" />
<glyph unicode="&#xe930;" glyph-name="Botn-More" d="M1018.516 708.56c-3.558 3.561-8.474 5.764-13.906 5.764s-10.348-2.203-13.905-5.764v0l-478.568-478.627-478.587 478.528c-3.531 3.414-8.347 5.517-13.654 5.517-10.855 0-19.655-8.8-19.655-19.655 0-5.307 2.104-10.123 5.523-13.66l-0.005 0.006 492.621-492.522c3.557-3.556 8.469-5.755 13.896-5.755s10.339 2.199 13.896 5.755v0c0.506 0.495 0.976 1.021 1.409 1.577l0.026 0.035 490.911 491.009c3.556 3.557 5.755 8.469 5.755 13.896s-2.199 10.339-5.755 13.896v0z" />
<glyph unicode="&#xe931;" glyph-name="Buscar" d="M622.8 878.96c-174.82 0-318.82-144.46-318.86-320 0-175.040 144.7-318.52 321.24-318.44 174.68 0 318.46 144.76 318.34 320.36-0.1 174.56-144.84 318.060-320.72 318.080zM623.84 280.36c-154.98-0.66-280.24 126.18-280.2 280 0 153.020 126.6 278.96 280.44 278.96 153.36 0 280.46-126.64 279.74-280.82-0.7-153.38-125.7-278.12-280.040-278.14zM622.8 878.96c-174.82 0-318.82-144.46-318.86-320 0-175.040 144.7-318.52 321.24-318.44 174.68 0 318.46 144.76 318.34 320.36-0.1 174.56-144.84 318.060-320.72 318.080zM623.84 280.36c-154.98-0.66-280.24 126.18-280.2 280 0 153.020 126.6 278.96 280.44 278.96 153.36 0 280.46-126.64 279.74-280.82-0.7-153.38-125.7-278.12-280.040-278.14zM1021.44 600.88c-3.466 25.677-8.363 48.371-14.834 70.392l0.834-3.312c-19.12 65.16-50.36 123.24-98.82 171.66-38.9 38.86-84.4 67.5-134.76 88.96s-102.82 30.54-157.3 30.42c-17.76 0-34.96-3.54-52.34-6-85.52-12-158.64-49.16-220.38-108.96-33.785-32.965-61.547-71.919-81.599-115.174l-1.001-2.406c-33.34-72.16-44.46-147.62-32.8-226 7.64-51.38 25.5-99.44 51.7-144.38 9.78-16.8 9.7-16.82-3.38-29.86q-120.78-120.62-241.6-241.2c-4-4-7.52-8.44-11.48-12.46-10.64-10.8-16-24.9-23.68-37.56v-32c2.46-9.18 4-18.54 8.92-27.080 13.36-22.8 32.8-35.8 59.040-38.76h26c24.28 7.38 42.58 23.32 60 40.86q120.88 121.14 242 242c5.3 5.3 8.9 6.68 15.8 2 9.958-6.599 21.606-13.256 33.683-19.17l1.877-0.83c77.1-38.2 158-51.78 242.96-35.4 77.26 14.92 146.88 46.5 205.48 99.58 62.18 56.32 97.78 128 117.82 208.32 4 16.3 4 33.34 9.88 49.22v71.96c-2.080 1.12-1.68 3.26-2.020 5.18zM278.56 158.12q-84.68-84-168.92-168.28c-8.28-8.24-18-13.5-30.28-12.78-0.081-0.001-0.177-0.001-0.273-0.001-16.376 0-30.399 10.072-36.213 24.359l-0.094 0.261c-6.52 16.94-2.82 32 9.82 44.8 24 24.34 48.44 48.44 72.68 72.64 31.54 31.48 63.28 62.76 94.46 94.6 6 6.14 9 5.6 14.54-0.26 14.16-14.98 28.92-29.38 43.72-43.74 4.24-4.1 5.66-6.54 0.56-11.6zM363.26 245.16c-16.1-15.88-32-31.9-48-47.84-1.049-0.928-2.197-1.815-3.402-2.625l-0.118-0.075c-1.433 1.014-2.678 2.005-3.865 3.059l0.045-0.039c-15.54 15.48-31 31.080-46.66 46.44-3.48 3.4-3.18 5.68 0.14 8.94q23.86 23.4 47.32 47.2c3.52 3.6 5.58 3.020 8.74-0.28 14.88-15.62 30-31.1 45.020-46.56 2.56-2.66 4.2-4.8 0.78-8.2zM621.78 200.4c-197.62 0.6-358.66 163.42-358.14 360 0.52 197.86 163 360 362.52 358.74 196-1.2 358.32-162 357.48-359.62 0.74-197.88-161.98-359.72-361.86-359.12zM622.78 878.96c-174.82 0-318.82-144.46-318.86-320 0-175.040 144.7-318.52 321.24-318.44 174.68 0 318.46 144.76 318.34 320.36-0.080 174.56-144.82 318.060-320.7 318.080zM623.82 280.36c-154.98-0.66-280.24 126.18-280.2 280 0 153.020 126.6 278.96 280.44 278.96 153.36 0 280.46-126.64 279.74-280.82-0.68-153.38-125.68-278.12-280.020-278.14zM622.78 878.96c-174.82 0-318.82-144.46-318.86-320 0-175.040 144.7-318.52 321.24-318.44 174.68 0 318.46 144.76 318.34 320.36-0.080 174.56-144.82 318.060-320.7 318.080zM623.82 280.36c-154.98-0.66-280.24 126.18-280.2 280 0 153.020 126.6 278.96 280.44 278.96 153.36 0 280.46-126.64 279.74-280.82-0.68-153.38-125.68-278.12-280.020-278.14zM622.78 878.96c-174.82 0-318.82-144.46-318.86-320 0-175.040 144.7-318.52 321.24-318.44 174.68 0 318.46 144.76 318.34 320.36-0.080 174.56-144.82 318.060-320.7 318.080zM623.82 280.36c-154.98-0.66-280.24 126.18-280.2 280 0 153.020 126.6 278.96 280.44 278.96 153.36 0 280.46-126.64 279.74-280.82-0.68-153.38-125.68-278.12-280.020-278.14zM622.8 878.96c-174.82 0-318.82-144.46-318.86-320 0-175.040 144.7-318.52 321.24-318.44 174.68 0 318.46 144.76 318.34 320.36-0.1 174.56-144.84 318.060-320.72 318.080zM623.84 280.36c-154.98-0.66-280.24 126.18-280.2 280 0 153.020 126.6 278.96 280.44 278.96 153.36 0 280.46-126.64 279.74-280.82-0.7-153.38-125.7-278.12-280.040-278.14zM643.58 779.28c0-11.2-10-19.34-24-20-42.54-1.82-81.7-13.62-115.68-40-26.68-20.64-47.72-45.9-61.72-76.76-2.517-6.045-5.345-11.228-8.638-16.069l0.198 0.309c-5.46-7.48-13.34-9.76-22.14-6.78s-12.5 9.4-11.9 18.26c-0.014 0.309-0.022 0.672-0.022 1.036 0 3.551 0.744 6.928 2.084 9.984l-0.063-0.16c36.16 83.42 99.64 132 188.98 147.42 7.778 1.66 16.714 2.611 25.873 2.611 1.001 0 2-0.011 2.995-0.034l-0.148 0.003c14.16-0.62 24.16-8.58 24.18-19.82zM423.78 560.3c0-10.14-10-20.5-19.54-20.34-10.16 0.16-20.1 10-20.12 19.8s10.16 20 20.1 19.78c9.56-0.18 19.56-10.020 19.56-19.24z" />
<glyph unicode="&#xe932;" glyph-name="Calendar" d="M227.424 960h24.047c32.964-11.162 39.657-36.872 35.67-68.133h448.255c0 8.016 0 15.671 0 23.245-0.002 0.151-0.003 0.33-0.003 0.509 0 14.939 7.657 28.090 19.26 35.742l0.16 0.099c5.050 3.507 11.042 5.711 16.592 8.517h24.047c34.067-10.541 40.659-36.672 36.752-68.714 20.901 0 39.818 0 58.755 0 49.677-0.16 80.617-30.92 80.678-80.377q0.12-90.998 0-181.995c0-204.399-0.441-408.638 0.341-612.957 0.18-44.246-32.323-79.756-76.57-79.756q-383.99 0.12-767.96 0.321c-0.077 0-0.167 0-0.258 0-11.447 0-22.326 2.434-32.146 6.813l0.502-0.2c-31.101 14.288-44.487 39.698-44.447 73.804q0.361 396.474 0.14 792.949c0 2.986 0 6.012 0.12 8.998 1.162 36.692 28.255 67.372 64.666 70.999 19.819 2.004 39.918 1.022 59.897 1.363 4.509 0 8.998 0 14.168 0 0 8.016 0 14.268 0 20.58 0 14.348 4.268 27.273 15.731 36.291 6.372 4.99 14.348 8.016 21.602 11.903zM219.409 861.969c0-14.388 0-27.033 0-39.657 0-14.027 3.387-18.035 17.214-20.921 9.418-2.004 14.208-8.296 12.965-16.993-1.142-7.895-7.334-12.444-16.693-12.204-19.598 0.521-38.335 15.771-41.221 35.77-2.004 13.727-1.162 27.874-1.643 41.842-0.12 3.827-0.401 7.655-0.641 12.164-20.039 0-39.056 0-57.993 0-32.644 0-50.899-18.035-50.98-50.619-0.1-41 0.301-82-0.281-122.98-0.14-10.020 3.246-12.023 12.524-12.023 47.312 0.441 94.645 0.22 141.977 0.18 0.853 0.046 1.851 0.073 2.856 0.073 3.238 0 6.412-0.274 9.5-0.801l-0.332 0.047c7.074-1.563 10.661-6.473 10.741-13.687 0.030-0.329 0.047-0.713 0.047-1.1 0-6.317-4.497-11.584-10.464-12.774l-0.083-0.014c-2.678-0.508-5.759-0.798-8.908-0.798-1.096 0-2.184 0.035-3.263 0.105l0.147-0.008c-47.994 0-95.987-0.12-143.981 0-7.154 0-10.701-1.022-10.681-9.659q0.361-282.432 0.281-564.883c0-28.876 19.097-47.373 47.874-47.393q288.964 0 577.889 0c23.406 0 37.333 13.867 37.433 37.213 0.14 31.001 0 61.981 0 92.982 0.1 41.441 26.592 67.933 68.133 68.133 29.658 0.14 59.336 0 88.994 0 28.556 0 41.441 12.845 41.441 41.541q0 184.941 0 369.923v12.023h-627.766c-4.328 0-8.677-0.12-12.985 0.281-8.296 0.802-12.725 6.012-12.845 14.027s4.008 13.346 12.364 14.348c2.887 0.275 6.242 0.432 9.633 0.432 1.172 0 2.339-0.019 3.502-0.056l-0.17 0.004q307.961 0 615.903-0.2c10.020 0 12.945 2.485 12.785 12.725-0.601 40.98-0.14 81.98-0.301 122.98 0 31.361-18.536 49.797-49.697 49.877q-58.494 0.16-116.968 0c-3.266 0-6.513-0.301-11.062-0.521 0-14.148-0.14-27.714 0-41.261 0.16-12.284 3.707-16.192 16.031-18.676 9.539-2.004 15.089-8.276 14.188-16.252-0.962-8.497-8.016-13.587-18.175-13.005-21.562 1.242-40.319 19.899-41.261 41.641-0.313 5.388-0.491 11.691-0.491 18.035s0.178 12.647 0.53 18.903l-0.039-0.867c0.621 9.519-2.204 12.364-12.023 12.344q-245.96-0.441-491.921-0.22zM80.257 11.868c1.042-6.673 1.182-10.641 2.325-14.328 6.332-20.48 23.366-31.802 47.613-31.802h761.648c32.624 0 50.499 17.875 50.559 50.719q0.14 72.482 0 144.943c0 3.106-0.401 6.192-0.741 11.082-4.008-3.787-6.713-6.152-9.238-8.657-46.651-46.631-93.583-93.002-139.793-140.094-18.697-19.037-40.259-27.734-66.891-27.674q-284.856 0.521-569.733 0.18c-25.51 0.020-51.541-2.846-75.748 15.631zM918.133 194.866h-26.372c-28.055 0-55.969 0.261-83.964-0.22-18.857-0.321-33.846-13.286-34.207-31.021-0.761-38.635-0.22-77.311-0.22-113.522zM257.242 891.727c2.886 22.364 1.623 33.185-6.914 35.65-7.515 2.184-18.316 2.705-24.187-1.222-12.304-8.256-4.95-22.304-6.873-34.427zM803.509 891.947c-1.804 12.645 5.651 27.233-8.016 35.169-6.012 3.467-17.434 3.467-23.285 0-13.346-8.136-5.892-22.604-7.475-35.089zM141.316 151.12c0 12.023-0.301 24.047 0 36.070 0.501 16.031 11.623 28.055 27.674 28.375 24.307 0.601 48.675 0.561 72.983 0 15.671-0.341 27.373-11.342 27.894-27.153q1.262-37.453 0-74.966c-0.581-16.031-12.905-26.832-29.097-27.053q-34.988-0.481-69.997 0c-17.514 0.24-28.937 12.023-29.518 29.778 0 0.681 0 1.343 0 2.004v32.944zM240.43 116.152v69.436h-69.215v-69.396zM205.762 272.056c-12.023 0-24.047-0.2-36.070 0-16.031 0.341-28.055 11.643-28.315 27.614q-0.661 36.972 0 73.964c0.24 14.027 9.579 25.83 23.686 26.512 26.893 1.283 53.925 1.242 80.818 0 13.707-0.621 23.366-11.523 23.806-25.41 0.802-25.63 0.922-51.32-0.1-76.93-0.621-15.61-13.005-25.57-28.977-25.81-11.523-0.080-23.185 0.060-34.848 0.060zM170.994 302.115h69.516v69.255h-69.516zM881.582 521.463c0-11.663 0.24-23.326 0-34.968-0.421-16.793-11.482-28.375-28.255-28.696-24.047-0.461-47.974-0.421-71.941 0-16.031 0.281-27.634 10.44-28.215 26.492-0.902 25.269-0.882 50.619 0 75.888 0.581 15.631 11.743 25.77 27.434 26.051q36.451 0.822 72.942 0c16.953-0.401 27.614-11.903 28.055-28.856 0.22-11.923 0-23.927-0.020-35.91zM851.784 557.534c-22.183 0-43.705 0.14-65.227-0.301-1.683 0-4.629-4.348-4.689-6.713q-0.561-28.436 0-56.871c0-2.325 3.086-6.533 4.809-6.573 21.522-0.461 43.064-0.301 65.107-0.301zM881.582 331.432c0-11.663 0.24-23.326 0-34.988-0.421-16.773-11.523-28.335-28.295-28.656q-36.070-0.661-71.961 0c-16.031 0.261-27.574 10.44-28.155 26.512-0.902 25.269-0.882 50.619 0 75.888 0.581 15.61 11.763 25.75 27.474 26.051q36.451 0.802 72.942 0c16.913-0.421 27.434-11.923 28.055-28.896 0-0.661 0-1.343 0-2.004v-34.067zM851.804 367.503c-22.043 0-43.625 0.12-65.147-0.261-1.703 0-4.729-3.667-4.769-5.671q-0.541-29.417 0-58.855c0-2.004 3.026-5.691 4.689-5.711 21.522-0.401 43.064-0.261 65.227-0.261zM205.461 457.619c-11.322 0-22.664-0.2-34.067 0-18.656 0.421-29.918 11.462-30.159 29.938q-0.421 34.487 0 68.955c0.22 18.035 11.102 29.478 29.137 29.838q35.469 0.721 70.939 0c17.073-0.361 28.215-11.142 28.716-28.315 0.681-23.947 0.701-47.974 0-71.92-0.521-17.514-12.023-28.055-29.678-28.436-11.563-0.281-23.225-0.040-34.888-0.060zM241.191 487.197c0 22.163 0.22 43.084-0.341 63.985 0 2.204-4.689 6.012-7.294 6.112-18.276 0.541-36.571 0-54.847 0.401-6.773 0.14-8.497-2.605-8.376-8.857 0.301-16.292 0-32.584 0.12-48.875 0-4.168 0.421-8.316 0.681-12.765zM345.214 151.962c0 11.663-0.341 23.346 0 34.988 0.601 16.733 11.823 28.295 28.496 28.616 24.047 0.461 48.094 0.501 71.981 0 16.192-0.361 27.694-11.823 28.055-28.055q0.802-36.491 0-72.983c-0.381-16.512-12.424-27.955-28.997-28.195-23.326-0.341-46.671-0.301-69.997 0-17.534 0.22-28.937 11.923-29.698 29.658 0 0.661 0 1.323 0 2.004v34.067zM444.568 185.467h-69.676v-68.955h69.616zM409.219 272.056c-11.663 0-23.326-0.16-34.988 0-16.733 0.301-28.556 11.302-28.916 28.055-0.521 24.047-0.481 47.974 0 71.961 0.281 16.933 10.881 28.355 28.055 28.977 24.047 0.862 47.974 0.842 71.941 0 18.035-0.601 28.436-12.364 28.676-30.62q0.441-33.966 0-67.953c-0.281-19.117-11.823-30.299-30.74-30.459-11.362-0.040-22.684 0.040-34.026 0.040zM374.752 371.531v-69.436h69.536v69.436zM677.864 336.182c0-11.663 0.281-23.346 0-34.988-0.501-17.715-12.164-28.977-30.059-29.097q-34.487-0.24-68.975 0c-17.394 0.12-29.197 10.961-29.618 28.355-0.601 24.047-0.561 47.974 0 71.941 0.381 16.973 11.162 28.055 28.415 28.716 24.047 0.761 48.094 0.802 71.961 0 17.554-0.641 27.754-12.384 28.335-29.918 0-0.661 0-1.323 0-2.004v-32.984zM648.066 371.951c-22.043 0-43.204 0.14-64.446-0.22-2.004 0-5.431-3.126-5.471-4.849-0.361-21.522-0.24-43.064-0.24-64.867h70.137zM409.44 457.639c-11.663 0-23.326-0.261-34.968 0-17.554 0.481-28.896 11.342-29.217 28.756q-0.661 35.95 0 71.92c0.321 16.432 11.322 27.554 27.834 27.915q36.451 0.842 72.922 0c16.472-0.401 27.414-11.543 27.774-28.055q0.761-35.95 0-71.941c-0.341-17.314-11.843-28.055-29.417-28.596-11.603-0.24-23.265 0-34.928 0zM445.029 521.944c0 9.318-0.18 18.636 0 27.955 0.16 5.451-1.743 7.815-7.455 7.755q-28.055-0.301-55.929 0c-5.491 0-7.775-1.804-7.715-7.475q0.301-27.955 0-55.909c0-5.471 1.723-7.815 7.435-7.735 18.656 0.2 37.293 0.261 55.929 0 6.392-0.1 8.016 2.745 7.755 8.457-0.24 8.957-0.020 17.955-0.020 26.953zM677.864 521.504c0-11.322 0.22-22.644 0-33.966-0.421-18.035-11.402-29.498-29.257-29.798q-34.968-0.581-69.937 0c-17.594 0.24-29.077 11.102-29.458 28.496q-0.842 35.95 0 71.92c0.401 17.013 11.482 27.874 28.616 28.235q35.469 0.741 70.939 0c18.035-0.381 28.696-11.703 29.097-29.918 0.14-11.643 0-23.306 0-34.968zM613.578 557.574c-9.318 0-18.636-0.18-28.055 0-5.411 0.14-7.855-1.703-7.795-7.435q0.341-27.894-0.060-55.949c0-5.451 1.723-7.815 7.435-7.755q27.955 0.301 55.929 0c5.391 0 7.835 1.643 7.775 7.394-0.22 18.656-0.261 37.293 0 55.929 0.1 6.352-2.665 8.016-8.416 7.795-8.897-0.2-17.895 0.020-26.893 0.020zM648.106 115.751v70.137h-70.317c0-6.012 0.16-11.823 0-17.634-0.341-10.841-5.451-16.452-14.588-16.352-8.777 0.1-13.707 5.471-14.288 15.711-1.844 33.045 3.166 50.499 45.308 48.334 17.274-0.882 34.648 0 51.961-0.18 20.159-0.2 31.441-11.502 31.622-31.762q0.261-33.004 0-65.989c-0.18-20.039-11.683-31.582-31.702-31.682-22.324-0.12-44.647-0.2-66.971 0-16.873 0.16-29.337 11.803-30.059 27.213-0.381 8.116 3.026 13.787 10.761 15.831 7.334 2.004 12.745-1.503 16.813-7.775 1.543-2.325 4.228-5.511 6.453-5.551 21.282-0.461 42.663-0.301 65.007-0.301z" />
<glyph unicode="&#xe933;" glyph-name="Campana" d="M997.258 515.373c-4.342-12.108-4.134-25.15-6.452-37.691-7.99-43.569-22.771-82.437-43.359-117.484l0.911 1.678c-50.422-86.642-100.151-173.751-150.659-260.238-6.763-11.606-7.905-20.878-1.557-33.366 19.027-37.535 19.926-76.108 1.903-114.577-9.444-20.186-18.716-23.265-38.054-12.108q-125.734 72.545-251.364 145.297c-7.663 4.445-11.658 4.601-16.675-3.667-15.377-25.271-36.947-43.347-66.249-50.162-33.522-7.766-66.595-3.754-93.561 17.297-47.862 37.431-60.8 89.375-33.505 143.395 5.449 10.776 5.587 10.707-5.034 16.83l-248.579 143.222c-1.73 1.003-3.459 2.024-5.189 3.114-16.346 10.638-18.525 24.631-5.483 40.51 21.812 26.517 48.432 45.578 83.131 51.459 0.738 0.248 1.597 0.426 2.486 0.499l0.040 0.003c19.892-1.73 29.094 10.378 38.054 26.119 51.529 91.295 101.691 183.524 157.907 271.965 56.874 89.479 139.485 143.914 245.622 159.914 48.605 7.334 96.865 3.65 144.813-6.054 16.761-3.459 18.595-2.837 27.33 11.728 27.901 46.512 73.894 55.991 117.258 39.023s75.537-70.746 49.92-125.094c-2.425-5.529-4.779-10.071-7.377-14.451l0.337 0.613c-5.051-8.061-3.771-14.858 2.335-21.864 21.979-24.756 41.608-52.487 58.004-82.249l1.188-2.352c22.296-41.808 36.324-86.089 40.32-133.431 0.138-1.609-0.415-3.459 1.643-4.48zM617.116 871.248c-1.040 0.015-2.267 0.023-3.496 0.023-14.75 0-29.214-1.223-43.297-3.572l1.526 0.21c-98.595-15.568-175.412-64.986-226.595-150.936-53.328-89.6-104.441-180.48-156.8-270.616-3.892-6.694-3.338-9.427 3.459-13.336q155.364-89.219 310.521-179.027c5.341-2.781 9.927-6.142 13.931-10.091l-0.006 0.006c5.587-6.071 7.005-13.094 3.459-20.757-2.923-6.961-9.677-11.764-17.555-11.779h-0.002c-7.109-0.311-12.592 3.563-18.266 6.919q-163.788 94.547-327.507 189.198c-3.027 1.833-6.665 2.958-10.557 3.061l-0.029 0.001c-1.226 0.061-2.663 0.096-4.107 0.096-21.592 0-41.366-7.785-56.668-20.701l0.131 0.108c-8.649-7.075-8.649-7.092 1.142-12.731q240.277-138.776 480.554-277.535 95.135-54.919 190.27-109.751c8.649-4.999 9.012-4.757 10.724 4.618 4.549 25.046 0 48.294-15.256 68.636-10.499 14.063-9.583 26.69-1.090 41.271q80.554 138.534 160.398 277.483c40.908 70.919 54.21 146.595 36.151 226.75-34.819 154.638-170.43 262.452-331.036 262.452zM396.852 70.123c27.33 0 46.824 13.008 60.696 35.926 3.217 5.328 2.854 7.888-2.889 11.139q-53.968 30.564-107.468 62.011c-5.639 3.338-7.611 1.73-10.482-2.941-13.838-22.486-14.91-45.457-2.301-68.739 13.405-24.701 34.439-37.016 62.443-37.397zM811.139 919.421c-18.024-0.415-32.588-11.814-42.759-30.184-2.179-3.926-0.415-5.518 2.733-7.299 12.195-6.919 24.216-14.115 36.463-21.068 13.423-7.663 26.776-15.568 40.441-22.694 8.251-4.324 12.662-2.525 16 4.999 15.862 35.667-9.929 75.814-52.878 76.177z" />
<glyph unicode="&#xe934;" d="M0 473.274v6.006c0.569 0.484 0.928 1.201 0.928 2.002s-0.359 1.518-0.925 1.999l-0.004 0.003v8.008c2.362 13.353 2.002 26.946 3.263 40.419 3.483 38.537 15.515 74.852 30.029 110.286 18.938 46.044 43.462 89.045 75.212 127.642 40.939 49.768 88.385 92.088 144.458 124.119 46.648 27.681 100.951 48.64 158.749 59.786l3.186 0.511c15.275 2.803 30.689 3.483 46.044 4.264 46.044 2.322 92.088 2.943 137.732-3.203 58.676-8.008 113.108-29.308 164.898-57.695 50.428-27.666 93.75-64.282 132.387-106.462 37.616-41.059 66.824-87.824 88.985-138.853 16.496-38.036 30.029-77.074 34.653-118.373 2.716-24.149 4.266-52.143 4.266-80.499 0-14.28-0.393-28.469-1.169-42.555l0.086 1.959c-1.041-22.722-0.941-45.504-5.585-67.905-18.017-86.403-55.053-163.496-112.448-230.721-49.443-58.317-110.661-105.046-180.151-136.812l-3.225-1.321c-31.457-14.769-68.056-26.674-106.308-33.898l-2.896-0.455c-18.878-3.343-38.036-3.303-57.215-4.524-2.002-0.12-4.004 0.52-5.705-0.981h-12.011c-3.664 2.002-7.627 0.52-11.451 0.981h-29.188c-4.404-0.46-8.969 1.021-13.273-0.981h-12.011c-14.674 2.763-29.608 2.282-44.423 3.583-29.448 2.623-57.535 10.71-85.162 20.38-60.19 21.076-112.202 50.945-157.486 88.625l0.816-0.66c-54.052 44.923-98.634 97.613-131.045 160.373-21.641 42.040-38.257 85.622-47.726 131.906-4.004 19.579-3.884 39.578-5.325 59.417-0.14 2.002 0.52 4.004-1.001 5.725v16.015c0.755 1.775 1.195 3.839 1.195 6.006s-0.439 4.231-1.233 6.109l0.039-0.103v28.027c0.744 1.767 1.177 3.82 1.177 5.975 0 2.117-0.418 4.137-1.175 5.981l0.038-0.105z" />
<glyph unicode="&#xe935;" d="M469.369 176.55c-2.102 1.541-4.004 2.863-5.846 4.284q-113.769 88.605-227.618 177.089c-6.466 5.005-6.126 8.008-1.421 13.813 19.138 23.863 38.036 48.046 56.394 72.429 4.945 6.586 7.827 7.227 14.454 2.002 43.822-34.653 88.184-68.646 131.946-103.379 7.287-5.786 10.010-4.464 14.814 2.522q115.871 167.861 232.102 335.501c5.005 7.267 8.148 8.608 15.775 3.083 25.024-18.137 50.568-35.594 76.213-52.871 5.605-3.764 5.625-6.306 2.002-11.511q-151.885-218.789-303.571-437.759c-1.361-2.002-2.202-4.805-5.245-5.205z" />
<glyph unicode="&#xe936;" glyph-name="City" d="M534.304 960c16.352-2.665 32.824-4.749 49.056-8.016 133.14-27.213 240.109-138.27 263.154-271.951 16.392-95.006-5.35-181.595-55.468-262.513-39.798-64.125-87.972-122.119-133.942-181.715-7.054-9.138-14.148-18.256-22.043-28.395 19.879-4.108 38.375-7.475 56.631-11.803 34.447-8.176 68.133-18.797 98.492-37.493 15.687-9.443 29.223-20.27 41.164-32.645l0.057-0.059c27.834-29.918 27.333-67.372 0.721-98.412-15.25-17.775-34.447-30.319-55.208-40.539-46.791-23.065-96.929-34.848-148.29-42.082-34.807-5.244-74.973-8.238-115.838-8.238-45.574 0-90.278 3.725-133.825 10.886l4.744-0.644c-55.128 8.857-109.213 21.903-156.987 52.382-14.596 9.4-27.083 20.497-37.658 33.238l-0.215 0.267c-22.464 27.454-21.763 60.117 0 88.172 19.939 25.931 47.633 41.1 77.050 53.545 37.613 15.911 77.071 25.129 117.209 31.782 1.603 0.261 3.166 0.641 6.513 1.343-3.006 4.188-5.33 7.575-7.795 10.841-44.427 58.675-89.996 116.568-132.98 176.344-35.89 49.877-61.701 104.945-71.62 166.425-30.459 188.468 91.439 356.236 268.905 392.426 14.609 2.986 29.478 4.589 44.226 6.853zM512.261 110.32c2.365 2.886 3.687 4.369 4.87 6.012 47.753 62.462 96.028 124.523 143.019 187.546 34.828 46.691 70.137 93.262 101.318 142.278 42.804 67.332 59.737 141.516 47.413 221.593-27.694 179.992-216.002 295.517-388.759 238.065-166.866-55.548-251.191-236.181-187.065-400.783 19.558-50.098 49.617-94.184 81.88-136.667 62.662-82.501 125.886-164.581 188.869-246.842 2.585-3.286 5.070-6.733 8.457-11.202zM524.565-24.583c15.23 0.982 42.904 2.004 70.377 4.649 52.102 5.17 103.402 15.29 151.997 35.85 20.32 8.597 39.918 18.717 54.867 35.61s15.25 33.225-0.621 48.715c-10.652 10.461-22.761 19.492-35.983 26.746l-0.849 0.427c-47.092 25.129-98.633 35.569-150.975 42.423-3.687 0.481-9.338-2.926-11.843-6.232-23.466-31.121-46.511-62.562-69.576-93.984-13.066-17.815-26.331-17.614-39.517 0.441-22.805 31.221-45.809 62.262-68.614 93.483-3.326 4.549-6.513 7.555-13.005 6.653-43.986-6.132-87.25-15.089-128.451-32.063-21.001-8.697-41.16-19.057-57.312-35.61-16.953-17.354-17.314-34.067-1.102-51.881 3.567-4.008 7.254-8.276 11.803-10.681 20.801-11.022 41.1-23.686 63.083-31.622 68.754-24.989 140.575-32.043 225.641-32.924zM652.094 620.377c-0.102-77.183-62.523-139.752-139.64-140.094h-0.033c-76.409-0.1-139.573 62.662-139.813 138.931 0 0.119-0.001 0.26-0.001 0.401 0 77.405 62.749 140.154 140.154 140.154 0 0 0.001 0 0.001 0v0c76.309-0.080 139.132-62.923 139.332-139.392zM512.361 519.8c55.336 0 100.195 44.859 100.195 100.196s-44.859 100.196-100.196 100.196c-55.238 0-100.036-44.699-100.195-99.9v-0.015c0-0.042 0-0.091 0-0.14 0-55.373 44.837-100.273 100.186-100.376h0.010zM771.888 633.462c0.501-24.648-6.132-34.527-18.997-34.948s-20.039 9.418-20.34 27.394c-1.242 87.070-57.973 167.607-140.514 199.49-2.164 0.822-4.389 1.543-6.493 2.545-10.521 5.050-14.849 15.57-10.621 25.71 4.008 9.479 14.328 14.027 24.929 10.501 29.939-10.338 55.785-25.333 78.084-44.362l-0.332 0.276c59.897-50.358 90.537-115.225 94.284-186.604zM533.823 859.584c-0.517-10.754-9.362-19.278-20.198-19.278-0.050 0-0.1 0-0.15 0.001h0.008c-10.578 0.369-19.013 9.033-19.013 19.667 0 10.868 8.81 19.678 19.678 19.678s19.678-8.81 19.678-19.678c0-0.137-0.001-0.274-0.004-0.41v0.020z" />
<glyph unicode="&#xe937;" glyph-name="close" d="M511.977-64c-282.227-0.115-512.046 229.613-512.069 511.908s229.59 512 512.069 512.092 511.863-229.43 511.977-512-229.407-511.863-511.977-512zM951.954 447.633c0 0.027 0 0.059 0 0.092 0 242.727-196.769 439.496-439.496 439.496-0.129 0-0.258 0-0.387 0h0.020c-241.85-0.115-439.083-197.531-439.129-439.518s196.592-438.968 439.014-439.335c0.32-0.001 0.699-0.001 1.077-0.001 242.398 0 438.9 196.502 438.9 438.9 0 0.13 0 0.259 0 0.389v-0.021zM511.977 499.491c3.689 3.529 6.737 6.325 9.647 9.166q59.855 59.809 119.687 119.573c12.878 12.787 29.171 15.239 43.952 7.448 14.414-7.608 22.457-22.64 18.332-39.369-2.681-9.031-7.44-16.753-13.739-22.905l-0.010-0.010c-38.956-39.208-78.463-77.913-117.854-116.548-2.873-2.541-6.009-5.051-9.265-7.406l-0.36-0.248c4.285-4.583 6.875-7.562 9.877-10.427 40.675-40.148 81.464-80.204 122.002-120.444 12.993-12.924 15.308-29.103 7.333-43.883s-24.13-22.915-40.492-18.332c-8.212 2.657-15.233 7.045-20.92 12.762l-0.002 0.002c-39.69 38.956-78.875 78.485-118.152 117.854-2.956 2.956-5.431 6.393-8.891 10.518-4.194-3.941-7.218-6.623-10.037-9.487-39.071-39.598-77.913-79.517-117.465-118.542-7.157-6.649-16.097-11.474-26.024-13.679l-0.375-0.070c-14.23-3.048-28.232 5.958-34.671 18.859-7.127 14.253-4.881 29.996 6.875 42.096q54.722 56.005 109.994 111.53c6.141 6.21 13.131 11.572 20.624 18.057-4.583 4.881-7.264 7.929-10.106 10.77q-58.595 58.641-117.213 117.213c-10.449 10.472-15.033 22.663-10.587 37.398 3.473 12.851 13.887 22.583 26.873 25.013l0.213 0.033c14.414 3.208 25.849-2.567 35.909-12.672q58.87-58.893 117.969-117.854c1.925-1.879 3.896-3.644 6.875-6.416z" />
<glyph unicode="&#xe938;" glyph-name="Company" d="M0 58.010c6.674 11.283 16.634 14.63 29.42 14.029 16.213-0.862 32.507-0.2 49.983-0.2v13.788q0 160.529 0 321.038c-0.027 0.811-0.042 1.764-0.042 2.72 0 3.611 0.219 7.171 0.645 10.667l-0.042-0.42c1.388 9.359 9.366 16.459 19.003 16.459 9.836 0 17.944-7.396 19.067-16.93l0.009-0.090c0.285-2.941 0.448-6.357 0.448-9.812 0-1.116-0.017-2.229-0.051-3.337l0.004 0.162q0-160.008 0-320.036v-13.508h93.933v11.484q0 94.995 0 190.010c0 19.28 6.573 25.833 25.893 25.853h263.741c5.451 21.705 10.682 42.467 15.772 62.689-4.85 3.166-12.886 5.912-16.434 11.484s-3.287 14.029-3.387 21.103c-0.341 26.995-0.22 54.011-0.1 81.006 0 16.835 7.014 23.669 23.709 23.749 17.676 0 35.353 0.24 53.029-0.1 5.531-0.1 8.137 1.483 10.021 6.954 3.708 10.942 8.497 21.524 13.187 33.108-3.427 0.2-6.553 0.541-9.68 0.541-22.687 0-45.353 0-68.019 0-14.43 0.1-22.045 7.195-22.145 21.224q-0.381 46.495 0 93.011c0.1 13.588 7.656 21.043 21.163 21.163q38.078 0.361 76.016 0c14.029-0.12 21.484-7.475 21.644-21.765 0.301-24.33 0-48.68 0.12-73.010v-12.686c3.247 2.846 4.81 4.269 6.413 5.632 14.029 11.724 28.178 23.268 41.946 35.272 2.866 2.485 6.012 6.614 6.012 10.021q0.461 147.983 0.16 296.027c-0.146 1.669-0.409 3.192-0.785 4.669l0.043-0.2h-552.273v-12.666q0-161.050 0-322.040c0.034-0.877 0.053-1.907 0.053-2.942 0-3.534-0.223-7.015-0.656-10.431l0.042 0.406c-1.738-8.973-9.532-15.656-18.886-15.656-9.254 0-16.98 6.54-18.809 15.25l-0.022 0.125c-0.466 2.995-0.733 6.449-0.733 9.965 0 0.724 0.011 1.446 0.034 2.165l-0.003-0.105q0 174.518 0 349.036c0 21.344 6.012 27.136 27.436 27.136h577.184c20.682 0 26.655-6.012 26.655-26.835q0-144.536 0-289.053v-13.007c15.612 2.004 30.262 4.569 45.052 5.551 92.189 6.012 179.187-62.588 194.399-153.835 2.706-16.273 2.525-33.108 2.565-49.682 0-6.353 1.162-10.021 6.573-13.888 42.567-30.342 65.414-71.988 64.613-124.255-0.922-58.119-28.058-102.53-79.343-129.666s-102.029-22.987-151.010 7.295c-2.004 1.243-3.848 2.625-5.812 3.888-0.756 0.38-1.647 0.728-2.573 0.994l-0.112 0.028c-0.375-2.113-0.668-4.676-0.814-7.278l-0.008-0.177c0-23.328 0.12-46.676-0.16-70.004 0-6.273 1.243-9.259 8.257-10.582 25.767-4.846 48.141-16.952 65.551-34.086l-0.017 0.016c4.169-4.008 7.756-4.73 13.207-3.367 60.925 15.211 118.363-25.392 124.976-87.72 1.363-12.786-3.006-21.805-13.528-28.418h-982.535zM784.088 346.742c3.507 3.026 5.291 4.389 6.894 6.012 12.766 12.686 25.252 25.673 38.299 38.078 11.644 11.083 28.338 7.315 33.088-6.954 3.066-9.159-0.661-16.033-6.954-22.426q-32.226-32.066-64.372-64.352c-1.884-1.884-5.151-3.728-5.331-5.792-1.623-19.941-8.217-42.086 2.485-59.282 23.548-37.757 74.393-53.149 118.643-40.082 43.209 12.766 76.156 53.69 77.559 97.861 1.603 46.676-18.658 81.407-59.282 104.214-12.766 7.175-14.65 12.586-13.407 26.715 1.383 15.812 2.525 32.066 0.762 47.698-9.339 82.99-93.011 143.334-174.999 127-80.906-16.033-131.57-86.898-121.449-169.748 2.686-22.045 2.225-23.027-16.915-34.070-37.617-21.604-59.883-65.154-54.652-106.899 5.591-44.591 36.234-81.026 78.321-93.051 42.447-12.145 88.041 1.804 115.116 36.074 3.728 4.933 6.076 11.094 6.371 17.789l0.002 0.068c0.701 26.053 0 52.107 0.461 78 0.029 0.409 0.045 0.886 0.045 1.367 0 6.044-2.6 11.481-6.743 15.252l-0.017 0.015c-18.177 17.576-36.014 35.613-53.75 53.65-8.297 8.397-10.021 16.975-5.351 25.272 6.493 11.744 21.103 14.029 31.404 4.008 10.942-10.522 21.183-21.725 33.749-34.711 0.301 6.654 0.541 9.84 0.561 13.027 0 12.325-0.24 24.671 0.16 36.996 0 0.003 0 0.006 0 0.010 0 9.51 6.779 17.436 15.768 19.209l0.124 0.020c1.172 0.259 2.519 0.407 3.9 0.407 8.113 0 15.031-5.118 17.701-12.301l0.043-0.131c1.128-3.483 1.778-7.491 1.778-11.65 0-0.371-0.005-0.741-0.015-1.11l0.001 0.054c0.060-27.937 0-55.895 0-86.237zM647.207 31.556h-606.724v-55.814h577.745c0.767-0.121 1.652-0.19 2.553-0.19 1.225 0 2.42 0.127 3.572 0.37l-0.113-0.020c2.104 0.862 4.87 2.365 5.531 4.229 5.992 17.075 11.664 34.27 17.436 51.425zM371.782 72.159v187.585h-119.104v-187.585zM412.606 260.305v-187.885h119.345c0.222 1.231 0.408 2.75 0.514 4.292l0.008 0.137c0 42.647 0.1 85.295 0 127.922-0.26 3.435-1.224 6.592-2.747 9.402l0.061-0.123c-6.233 13.548-12.526 27.076-19.199 40.423-1.202 2.405-4.209 5.551-6.393 5.571-30.362 0.381-60.644 0.261-91.588 0.261zM669.132-23.657h282.88c-8.618 31.925-47.157 48.58-79.623 34.952-18.157-7.616-21.183-6.894-34.27 8.157-47.437 54.612-135.137 40.884-163.435-25.673-2.305-5.371-3.647-11.163-5.632-17.436zM671.136 148.696c-35.693-3.207-67.919 4.008-98.201 22.747v-99.203h98.201zM744.667 178.036c-10.261-5.832-19.199-10.281-27.336-15.873-3.348-2.456-5.653-6.165-6.224-10.422l-0.009-0.079c-0.641-18.277-0.301-36.595-0.301-54.913v-13.748c11.103 2.766 20.462 4.85 29.621 7.596 2.12 1.075 3.632 3.084 4.003 5.47l0.005 0.042c0.2 26.935 0.12 53.83 0.12 81.968zM538.244 636.016v-55.434h38.96v55.474zM537.683 459.654v-56.336c5.291 0.701 10.642 0 14.029 2.144 9.068 6.399 16.952 12.674 24.464 19.359l-0.274-0.24c0.701 0.581 0.441 2.545 0.361 3.848-0.561 10.221-1.182 20.442-1.844 31.224zM296.749 784.199c0-14.991 0.18-30.062 0-44.992-0.24-15.492-7.435-22.646-22.767-22.727q-36.976-0.22-73.992 0c-14.75 0-22.045 7.355-22.145 22.246q-0.301 45.473 0 90.987c0.1 14.85 7.415 22.045 22.165 22.206q36.996 0.24 73.992 0c15.351 0 22.506-7.195 22.747-22.727 0.18-14.991 0-30.002 0-44.992zM217.666 812.017v-55.213h39.12v55.213zM337.793 785.202c0 14.991-0.18 30.062 0 44.992 0.22 14.209 7.535 21.604 21.644 21.705q37.517 0.301 74.994 0c14.43-0.1 22.045-7.115 22.185-21.224q0.481-46.475 0-92.971c-0.14-14.029-7.776-21.143-22.165-21.244-24.991-0.16-50.003-0.2-74.994 0-14.029 0.12-21.444 7.495-21.664 21.705-0.24 15.712 0 31.364 0 47.036zM417.135 811.916h-39.701v-55.414h39.701zM616.885 783.197c0-14.65 0.18-29.32 0-43.99-0.261-15.492-7.435-22.646-22.747-22.727q-36.996-0.22-74.012 0c-14.77 0-22.045 7.355-22.145 22.226q-0.301 45.513 0 90.987c0 14.87 7.395 22.045 22.145 22.226q36.996 0.24 74.012 0c15.351 0 22.506-7.195 22.747-22.727s0-30.663 0-45.994zM577.344 811.776h-39.742v-55.153h39.742zM296.729 608.178c0-15.011 0.2-30.062 0-44.992-0.24-15.512-7.435-22.666-22.747-22.767q-37.016-0.22-73.992 0c-14.79 0.1-22.045 7.335-22.165 22.226q-0.301 45.473 0 90.987c0.1 14.87 7.395 22.045 22.145 22.226q37.497 0.24 74.994 0c14.029-0.12 21.444-7.435 21.725-21.684 0.281-15.331 0.040-30.663 0.040-45.994zM217.426 580.522h39.601v55.273h-39.601zM337.793 608.499c0 14.991-0.16 30.062 0 44.992s7.355 22.266 22.045 22.386q37.477 0.24 74.994 0c14.209-0.1 21.745-7.335 21.865-21.524q0.461-45.994 0-91.989c-0.14-14.75-7.656-21.825-22.546-21.905q-36.996-0.24-73.992 0c-14.83 0-22.045 7.295-22.326 22.045-0.281 15.331-0.040 30.663-0.040 45.994zM377.494 580.442h39.601v55.374h-39.601zM177.724 432.779c0 15.011-0.18 30.062 0 44.992s7.495 22.045 22.326 22.045q36.996 0.22 73.992 0c14.931 0 22.426-7.135 22.546-21.885q0.401-45.994 0-91.989c-0.12-14.189-7.696-21.444-21.865-21.564q-37.497-0.261-74.994 0c-14.61 0.1-21.805 7.495-22.045 22.386-0.12 15.351 0.040 30.683 0.040 46.014zM256.887 404.24v55.354h-39.301v-55.354zM337.793 432.779c0 15.011-0.18 30.062 0 44.992s7.495 22.045 22.326 22.045q36.976 0.22 73.992 0c14.931 0 22.426-7.135 22.546-21.885q0.381-45.994 0-91.989c-0.14-14.189-7.696-21.444-21.865-21.564q-37.497-0.261-74.994 0c-14.61 0.1-21.805 7.495-22.045 22.386-0.2 15.351 0.040 30.683 0.040 46.014zM417.075 404.24v55.474h-39.561v-55.474zM118.242 495.728c-0.399-10.355-8.89-18.597-19.306-18.597-10.67 0-19.32 8.65-19.32 19.32s8.65 19.32 19.32 19.32c0.059 0 0.117 0 0.176-0.001h-0.009c10.604-0.129 19.151-8.756 19.151-19.378 0-0.233-0.004-0.465-0.012-0.696l0.001 0.034z" />
<glyph unicode="&#xe939;" glyph-name="Country" d="M0 510.502c2.004 16.432 3.487 32.964 6.272 49.276 3.407 20.039 6.433 40.219 12.264 59.556 9.438 31.261 28.556 54.807 62.823 59.697 13.667 2.004 28.055-1.403 42.523-2.365 78.353 160.514 206.042 253.916 388.138 254.277s308.783-94.184 389.2-256.501c3.106 0.922 7.394 2.365 11.803 3.427 38.074 9.118 74.285-9.018 88.172-48.555 9.118-25.75 14.027-53.364 17.875-80.577 2.906-19.344 4.566-41.666 4.566-64.376 0-56.269-10.19-110.158-28.825-159.923l1.033 3.147c-17.454-48.365-41.983-90.097-72.797-126.319l0.475 0.573c-19.378-22.744-23.326-47.573-12.985-75.387 15.871-42.703 31.401-85.567 47.032-128.371 8.016-22.043 0.22-33.345-23.125-33.345h-203.978c-16.753 0-21.602 3.367-26.752 19.478-14.348 44.888-28.536 89.835-43.064 135.565-44.165-17.122-95.279-27.043-148.71-27.043s-104.545 9.92-151.6 28.020l2.89-0.977c-13.907-44.086-27.534-87.411-41.321-130.715-7.194-22.564-9.879-24.408-33.225-24.408q-99.975 0-199.971 0c-22.043 0-30.179 11.382-22.624 32.183 15.11 41.581 29.718 83.363 45.729 124.603 12.204 31.421 8.156 58.594-14.288 84.164-25.41 28.977-44.587 62.121-59.877 97.551-5.871 13.587-2.685 24.588 8.477 29.518s21.502-0.18 27.514-13.907c16.202-36.15 35.976-67.3 59.534-95.145l-0.479 0.58c26.211-31.461 32.503-67.271 19.318-105.867-11.723-34.307-24.628-68.133-37.012-102.2-1.222-3.387-2.345-6.813-3.807-11.082 2.338-0.396 5.191-0.71 8.085-0.872l0.211-0.009c52.663 0 105.306-0.12 157.969 0.2 3.326 0 8.757 2.725 9.599 5.33 13.466 41.762 30.239 82.621 36.070 126.487 9.378 69.436-0.24 135.485-41.701 193.358-24.788 34.588-53.745 66.129-80.818 99.154-5.731 6.954-11.282 14.027-17.194 20.801-8.316 9.539-19.759 12.524-29.558 8.016s-14.989-14.027-12.725-26.752c6.533-37.092 21.041-71.319 38.856-104.204 1.919-3.131 3.925-6.904 5.719-10.795l0.293-0.708c0.93-2.171 1.471-4.698 1.471-7.35 0-7.144-3.923-13.372-9.732-16.647l-0.096-0.050c-2.762-1.604-6.077-2.55-9.614-2.55-5.938 0-11.252 2.668-14.81 6.87l-0.023 0.028c-1.949 2.442-3.739 5.186-5.257 8.095l-0.134 0.282c-56.591 101.318-69.816 208.207-40.539 320.426 0.982 3.807 2.004 7.615 2.986 11.242-16.753 11.563-37.493 4.469-44.747-9.218-6.272-11.843-11.723-24.849-13.927-37.934-5.090-30.059-8.517-60.598-11.543-91.018-1.523-15.29-4.529-22.965-14.027-25.951-10.020-3.126-17.254 0.601-25.931 13.246zM132.258 492.747c0.566-0.072 1.22-0.113 1.884-0.113s1.318 0.041 1.96 0.121l-0.077-0.008c36.692 12.164 57.292 6.473 82-23.285 30.059-36.070 60.117-72.261 89.475-108.893 8.79-10.957 16.919-23.244 23.881-36.251l0.627-1.282c25.209-47.573 35.169-98.773 33.626-152.297-0.2-7.094 1.743-10.42 8.577-12.985q138.27-51.701 276.219 0.2c6.673 2.505 7.875 6.012 8.016 12.444 0.461 18.596-1.042 37.934 3.447 55.649 12.023 47.773 12.685 96.048 11.683 144.643-0.24 11.322 0 22.664 0 34.067 0 48.094 0 48.094 34.547 81.7 22.143 21.602 49.777 21.702 71.74 0 7.034-6.974 13.346-14.689 21.001-23.165 12.023 15.651 23.586 28.055 40.679 33.125s33.405 2.365 51.701-5.17c-1.343 26.953-2.585 51.901-3.848 77.351-26.672 0-50.639 0-74.606 0-33.405 0-53.725 20.68-54.847 54.106-0.553 7.008-3.432 13.254-7.854 18.056l0.019-0.021c-20.66 21.722-41.621 43.244-63.564 63.664-16.372 15.25-24.909 32.784-22.243 54.987 2.004 15.931-2.745 28.295-15.631 38.235-19.538 15.029-27.554 35.289-24.788 59.817 0.341 2.966-0.321 6.012 0.12 8.978 1.082 7.034-2.144 10.020-8.677 11.783-31.677 9.333-68.069 14.703-105.716 14.703-13.632 0-27.099-0.704-40.367-2.078l1.661 0.139c-6.132-0.621-7.855-2.866-7.755-8.617 0.261-16.031 0.441-32.063 0-47.994-0.822-28.375-20.24-50.879-47.272-48.675-27.834 2.264-47.132-7.675-63.023-28.536-1.343-1.522-2.717-2.915-4.164-4.229l-0.044-0.039c-7.555-7.895-7.495-11.482 0.922-18.877 17.755-15.631 35.329-31.502 53.665-46.431 5.050-4.008 11.427-6.549 18.381-6.891l0.075-0.003c56.991-0.521 113.983-0.361 170.974-0.261 17.614 0 31.802-6.573 41.842-21.101 15.089-21.803 11.523-63.023-6.934-81.94-8.136-8.356-16.172-16.833-24.828-24.648-6.012-5.411-8.016-11.442-7.895-19.358 0.261-57.312 0-114.644 0.2-171.956 0-15.651-3.607-29.558-15.049-40.94-32.063-32.063-63.745-64.466-96.448-95.827-7.238-6.771-16.364-11.61-26.502-13.648l-0.35-0.059c-32.524-5.651-59.837 19.819-59.957 54.667-0.2 55.649-0.401 111.317 0.22 166.966 0.12 12.023-2.966 20.961-12.164 28.596-12.685 10.561-18.837 24.307-19.318 41.080-0.521 18.035-1.844 35.97-4.008 53.805-0.731 6.348-3.483 11.946-7.585 16.243l0.010-0.011c-27.053 25.209-54.707 49.797-82.16 74.546-13.807 12.404-13.847 12.364-27.293 0-21.322-19.618-48.936-19.318-69.776 1.122-4.469 4.389-8.016 9.799-13.466 16.733-24.287-57.572-34.087-113.462-30.96-171.936zM913.083 4.173c-1.723 5.070-2.826 8.477-4.008 11.843-12.023 32.824-24.047 65.588-35.87 98.472-14.729 41.060-8.537 78.553 19.819 112.059 31.323 36.98 55.858 80.835 70.997 128.858l0.723 2.658c22.764 72.502 25.069 146.005 10.020 220.11-3.146 15.47-7.294 31.341-14.488 45.208-9.619 18.576-28.616 22.484-46.23 12.344 0.012-1.298 0.157-2.556 0.423-3.768l-0.022 0.121c10.964-35.786 17.276-76.92 17.276-119.529 0-12.869-0.576-25.603-1.703-38.179l0.117 1.623c-5.578-65.752-25.791-125.778-57.347-178.201l1.037 1.857c-6.473-10.961-17.294-14.248-27.193-8.817s-12.785 16.753-6.733 28.456c5.831 11.222 12.885 22.043 17.214 33.766 9.338 25.53 18.216 51.34 25.41 77.531 3.747 13.687-3.627 24.748-14.929 27.874-12.144 3.367-21.201-1.703-28.836-11.001-26.812-32.724-53.565-65.528-80.778-97.931-52.543-62.562-67.652-134.863-56.871-214.198 6.012-43.565 22.524-84.164 35.81-125.525 0.842-2.625 6.232-5.391 9.519-5.431 33.666-0.401 67.332-0.24 100.997-0.24zM425.792 882.669c-5.17-1.242-9.338-2.104-13.426-3.246-90.857-25.41-162.738-77.391-216.202-154.943-16.632-24.047-16.372-24.307 4.689-45.168 1.423-1.403 2.826-2.826 4.308-4.188 4.749-4.409 9.519-4.108 14.188 0.12 2.224 2.004 4.288 4.188 6.493 6.232 19.899 18.516 46.551 19.258 66.81 1.242 31.381-27.915 62.462-56.11 93.583-84.305 9.176-7.945 15.19-19.328 16.024-32.125l0.007-0.138c1.182-17.594 2.906-35.189 3.587-52.823 0.461-11.563 3.246-21.121 12.805-28.776 14.849-11.863 19.819-27.874 19.618-46.872-0.621-56.971-0.12-113.963-0.341-170.954 0-8.016 2.826-14.729 10.020-16.472 4.008-0.982 10.48 2.585 14.027 6.012 29.518 28.916 58.474 58.414 87.932 87.391 4.983 4.709 8.084 11.364 8.084 18.743 0 0.555-0.018 1.105-0.052 1.651l0.004-0.075c-0.301 48.314-0.16 96.649-0.14 144.963 0 55.508-4.008 48.895 36.792 88.633 8.356 8.136 12.304 16.332 11.462 28.055-0.962 13.647-2.004 15.39-15.891 15.39q-84.986 0-169.952 0c-12.364 0-24.047 2.325-33.626 10.46-22.304 19.037-44.727 37.974-66.129 57.893-19.638 18.236-19.919 47.773-1.523 67.332 10.941 11.643 22.464 22.785 33.886 33.966 8.576 8.502 20.384 13.756 33.419 13.756 0.319 0 0.638-0.003 0.956-0.009l-0.048 0.001c9.338 0 18.656 0 28.055 0 6.392 0 10.46 3.086 10.601 9.398 0.2 15.871-0.020 31.822-0.020 48.855zM880.139 607.932c-18.997 71.359-54.506 130.856-106.648 180.352-30.299 29.13-65.764 53.165-104.84 70.554l-2.329 0.926c-3.226-13.927-0.822-24.348 9.819-32.443 23.546-17.875 33.085-41.721 29.458-70.979-0.11-0.445-0.173-0.957-0.173-1.483s0.063-1.037 0.182-1.527l-0.009 0.044c2.365-5.871 3.467-13.005 7.535-17.294 20.039-20.981 40.299-41.701 61.42-61.56 16.031-15.15 27.033-31.762 25.309-54.887-0.521-6.994 3.727-11.603 10.861-11.703 22.604-0.18 45.208 0 69.416 0zM712.712 360.249l2.485-0.882 30.299 36.792c10.26 12.484 20.52 24.989 32.063 39.177-4.489 3.627-8.637 6.453-12.184 10.020-24.047 23.726-19.097 23.766-42.984-0.261-3.848-3.868-9.138-8.777-9.338-13.366-0.802-23.847-0.341-47.673-0.341-71.48zM48.374 395.517c0-0.023 0-0.051 0-0.078 0-10.636-8.622-19.258-19.258-19.258s-19.258 8.622-19.258 19.258c0 10.537 8.463 19.097 18.962 19.255h0.015c0.266 0.014 0.577 0.021 0.89 0.021 10.304 0 18.656-8.353 18.656-18.656 0-0.191-0.003-0.381-0.009-0.57l0.001 0.028z" />
<glyph unicode="&#xe93a;" glyph-name="credit-card" d="M891.006 714.889h-847.198v-11.496q0-162.563 0-325.104c0-40.436 24.626-64.916 65.105-64.916h306.153c0.931 0.048 2.022 0.075 3.119 0.075 2.939 0 5.832-0.195 8.668-0.572l-0.332 0.036c10.548-1.84 18.465-10.927 18.465-21.863 0-0.449-0.013-0.895-0.040-1.337l0.003 0.061c-0.955-10.832-9.67-19.351-20.504-19.996l-0.060-0.003c-2.094-0.168-4.188-0.126-6.282-0.126q-156.197 0-312.435 0c-54.174 0.126-95.175 34.803-104.389 87.951-0.813 5.725-1.278 12.336-1.278 19.057 0 1.723 0.031 3.439 0.091 5.147l-0.007-0.248q-0.126 168.824 0 337.648c0 23.035-0.251 46.070 0 68.979 0.817 60.54 44.96 104.578 105.499 104.703q209.407 0.314 419.002 0 152.553 0 305.127 0c52.352 0 94.463-33.17 103.196-83.993 4.042-23.454 2.869-47.912 2.974-71.91 0.251-56.435-0.126-112.891-0.335-169.326 0.010-0.432 0.016-0.94 0.016-1.45 0-4.255-0.394-8.417-1.148-12.453l0.065 0.417c-2.277-9.621-10.793-16.67-20.955-16.67-10.117 0-18.603 6.986-20.896 16.398l-0.030 0.147c-0.689 3.619-1.084 7.781-1.084 12.036 0 0.51 0.006 1.018 0.017 1.525l-0.001-0.076q0 69.502 0 139.025c-0.042 2.408-0.293 4.774-0.524 8.334zM44.75 759.116h816.059c32.5 0 32.5 0 30.448 33.003s-27.223 57.001-60.246 57.022q-363.154 0.126-726.307 0c-30.469 0-54.634-19.349-59.597-49.399-2.115-12.774-0.356-26.197-0.356-40.625zM535.244 247.598c0.562 134.679 109.87 243.641 244.627 243.641 135.105 0 244.629-109.524 244.629-244.629s-109.524-244.629-244.629-244.629c-0.515 0-1.029 0.002-1.543 0.005h0.079c-134.41 0.521-243.168 109.601-243.168 244.083 0 0.538 0.002 1.076 0.005 1.613v-0.083zM779.811 447.707c-111.026 0-201.030-90.005-201.030-201.031s90.004-201.031 201.031-201.031c110.879 0 200.792 89.766 201.030 200.589v0.023c0.001 0.18 0.001 0.394 0.001 0.607 0 110.922-89.92 200.842-200.842 200.842-0.089 0-0.177 0-0.266 0h0.014zM201.073 424.442c28.186 0 56.372 0 84.538 0 15.559 0 25.38-8.376 25.631-21.318s-10.072-22.365-25.883-22.386c-57.063 0-114.127 0-171.19 0-10.722 0-19.328 3.707-23.37 14.009-3.267 8.376-2.492 17.297 4.795 23.035 4.911 3.755 11.044 6.146 17.717 6.509l0.082 0.004c29.212 0.607 58.445 0.147 87.679 0.147zM154.773 492.29c-12.858 0-25.736-0.126-38.615 0-17.088 0.188-27.034 8.544-26.867 22.323 0.147 13.402 9.863 21.632 26.343 21.736q39.662 0.251 79.344 0c17.36 0 26.909-8.23 26.762-22.281s-9.696-21.674-27.223-21.799c-13.297-0.084-26.511 0-39.745 0.021zM780.92 208.418c5.13 6.533 8.565 11.852 12.899 16.271 19.81 20.082 39.641 40.122 59.89 59.744 3.894 3.75 9.197 6.059 15.040 6.059 11.982 0 21.695-9.713 21.695-21.695 0-5.713-2.208-10.909-5.817-14.784l0.012 0.013q-44.604-45.483-90.045-90.045c-8.753-8.586-21.255-8.188-30.113 0.482q-33.987 33.233-67.157 67.262c-3.759 3.896-6.075 9.205-6.075 15.056 0 11.982 9.713 21.695 21.695 21.695 5.976 0 11.387-2.416 15.31-6.324l-0.001 0.001c16.857-16.585 33.149-33.756 52.666-53.734z" />
<glyph unicode="&#xe93b;" glyph-name="document-editor" d="M562.075 857.019v-50.376h-16.207q-181.288 0-362.576 0c-66.709-0.125-118.011-41.583-130.261-104.935-1.344-7.635-2.113-16.425-2.113-25.395 0-1.129 0.012-2.256 0.036-3.38l-0.003 0.168q-0.15-276.253 0-552.531c0-67.836 40.957-118.888 104.985-131.488 7.934-1.41 17.067-2.217 26.389-2.217 1.212 0 2.42 0.014 3.625 0.041l-0.179-0.003q275.051-0.15 550.126 0c68.512 0 119.539 40.080 132.515 103.708 1.637 8.997 2.573 19.353 2.573 29.927 0 1.712-0.025 3.418-0.073 5.118l0.006-0.25q0.251 177.505 0 355.011v17.084h49.925c0.276-3.883 0.701-7.515 0.701-11.147 0-122.921 0.276-245.842 0-368.763-0.225-89.329-59.569-161.098-146.919-178.157-10.259-2.056-22.053-3.232-34.122-3.232-0.201 0-0.403 0-0.604 0.001h0.031q-278.808-0.301-557.616 0c-89.855 0.075-161.323 58.843-178.858 146.067-2.072 10.233-3.258 21.996-3.258 34.035 0 0.249 0.001 0.499 0.002 0.748v-0.038q-0.301 279.409 0 558.769c0.125 88.878 58.818 160.321 145.591 177.856 10.684 2.199 22.963 3.457 35.536 3.457 0.162 0 0.324 0 0.487-0.001h-0.025q185.020 0.376 370.066 0.15c2.705 0.225 5.686-0.025 10.22-0.225zM292.11 193.090c-26.553-1.127-37.3 8.793-35.070 30.386q9.544 88.753 20.892 177.33c1.412 7.175 4.893 13.375 9.786 18.128l0.008 0.008q248.648 249.85 497.922 499.074c38.828 38.753 86.323 51.203 139.078 35.195 52.205-15.857 84.469-52.255 95.717-105.386 9.469-44.639-0.777-86.047-31.889-119.614-36.523-39.404-75.15-76.804-113.126-114.88q-190.106-190.857-380.161-381.739c-12.901-13.026-26.077-20.867-45.090-22.395-54.309-4.359-108.542-10.922-158.066-16.107zM310.446 245.695c44.339 4.785 86.047 9.669 127.756 13.477 10.258 0.862 19.271 5.585 25.697 12.692l0.030 0.034q186.874 187.876 374.099 375.527c3.407 3.432 6.688 7.039 9.068 9.544l-127.205 126.503c-2.023-3.388-4.166-6.32-6.548-9.037l0.060 0.069q-183.192-183.718-366.759-367.060c-14.028-13.978-23.923-27.781-23.272-48.272 0.301-9.018-2.179-18.136-3.206-27.23-3.181-28.031-6.313-56.062-9.719-86.323zM884.095 697.324c22.72 21.769 46.944 42.385 68.061 65.807 30.536 33.818 28.432 85.346-2.505 118.312-29.684 31.789-83.091 38.477-117.009 10.17-25.927-21.668-47.144-49.023-70.14-73.497z" />
<glyph unicode="&#xe93c;" glyph-name="drink" d="M394.725 797.949h558.112c3.579 0 7.179 0 10.779 0 7.416 0 14.465-0.604 18.152-8.623s-0.453-13.668-5.109-19.402l-217.174-268.46c-35.851-44.323-71.809-88.581-107.294-133.163-3.447-4.509-5.583-10.181-5.755-16.345l-0.001-0.039c-0.345-100.783-0.108-201.588-0.41-302.371 0-14.077 5.282-22.399 18.454-27.896 41.65-17.246 82.976-35.441 124.303-53.55 5.105-1.973 9.401-5.064 12.747-8.989l0.037-0.044c5.433-7.502 1.186-17.871-7.976-20.609-3.452-0.884-7.415-1.392-11.496-1.392-0.809 0-1.614 0.020-2.413 0.059l0.112-0.004q-186.648 0-373.318 0c-2.522 0-5.045 0-7.545 0-7.804 0.474-14.12 3.341-15.759 11.792-1.703 8.774 2.565 14.185 10.52 17.591 42.749 18.389 85.326 37.23 128.269 55.145 13.172 5.497 18.389 13.883 18.367 28.025-0.302 100.805-0.108 201.588-0.366 302.371 0.005 0.18 0.007 0.392 0.007 0.605 0 5.247-1.615 10.117-4.374 14.14l0.055-0.085q-107.186 133.292-214.932 266.154c-0.884 1.099-1.94 2.156-3.535 3.773-58.788-35.527-119.711-40.96-181.668-9.184-43.116 22.14-71.809 57.473-86.232 103.801-29.728 94.165 24.037 193.698 119.237 221.723 105.979 31.086 217.498-43.87 226.207-155.023zM473.821-31.124l0.819-1.789h237.137c-2.3 2.626-5.194 4.675-8.476 5.943l-0.147 0.050c-16.75 7.287-33.35 14.897-50.316 21.558-24.554 9.809-35.959 27.271-35.851 53.895 0.41 103.629 0.216 207.279 0 310.908-0.008 0.281-0.013 0.611-0.013 0.942 0 8.244 2.989 15.789 7.943 21.612l-0.039-0.047q152.069 187.554 303.772 375.388c2.522 3.126 4.807 6.467 7.912 10.606h-687.029c3.147-4.161 5.152-6.985 7.33-9.701q152.457-188.632 304.742-377.263c3.967-4.937 7.437-12.029 7.459-18.152q0.668-158.666 0.28-317.354c0-23.541-11.059-40.227-32.94-49.432-4.312-1.811-8.623-3.686-12.935-5.54zM297.822 660.884l-31.453 38.804c-19.467 24.123-39.084 47.837-57.84 72.197-3.32 4.312-5.26 12.935-3.191 17.246s9.83 6.316 15.414 8.623c2.458 1.013 5.67 0.216 8.623 0.216q60.729 0 121.479 0c4.118 0 8.257 0.345 12.331 0.517 0.259 54.886-50.424 113.222-110.139 127.925-10.541 2.696-22.643 4.244-35.106 4.244-57.401 0-107.135-32.828-131.452-80.733l-0.386-0.839c-30.698-61.246-15.198-134.564 37.877-179.081 48.872-41.068 125.381-45.444 173.843-9.054zM507.753 700.335c39.853-0.158 78.070-6.942 113.678-19.305l-2.461 0.744c30.181-10.412 60.599-21.752 92.958-19.402 24.080 1.725 47.923 7.437 71.723 12.137 8.3 1.638 15.759 3.040 20.997-5.131s1.272-14.767-4.031-21.321q-95.825-118.267-191.542-236.598c-2.889-3.557-6.036-7.631-9.981-9.464-9.162-4.312-15.349 1.078-20.976 8.063q-56.266 69.934-112.856 139.781-39.58 48.915-79.117 97.851c-11.253 13.948-9.421 22.442 6.92 30.181 36.821 17.074 76.207 21.321 114.688 22.463zM593.187 438.342l157.373 194.538c-17.677 0-35.118-0.582-52.493 0.129-30.397 1.25-59.047 10.779-87.46 20.631-29.868 10.945-64.354 17.275-100.318 17.275-8.609 0-17.134-0.363-25.559-1.074l1.1 0.075c-22.506-1.876-44.711-7.437-70.236-11.878zM191.154 741.36c-2.846-5.023-4.312-9.184-7.049-12.116q-12.935-13.754-26.559-26.646c-7.631-7.287-15.586-7.481-21.903-1.229s-5.821 14.487 1.25 21.924c8.903 9.335 17.613 18.993 27.616 27.034 3.902 3.147 11.533 4.053 16.556 2.652 3.967-1.078 6.532-7.243 10.089-11.62zM190.054 824.616c-2.156-3.061-4.204-8.86-7.89-10.283-4.635-1.768-12.417-2.048-15.716 0.733-11.633 9.693-21.998 20.113-31.327 31.42l-0.32 0.4c-2.824 3.514-2.156 13.366 0.776 16.945s13.56 6.058 16.406 3.708c12.827-10.628 24.166-23.067 35.829-35.053 1.25-1.337 1.186-3.988 2.242-7.869zM232.265 863.464c0-6.467 0.259-12.935 0-19.402-0.474-8.623-5.088-14.056-14.034-14.422s-14.465 5.152-14.961 13.517c-0.355 6.241-0.558 13.541-0.558 20.89s0.202 14.649 0.602 21.897l-0.044-1.008c0.41 8.472 5.562 13.84 14.638 13.926 8.623 0.108 14.056-5.583 14.465-15.091 0.129-6.705-0.108-13.517-0.108-20.308zM244.186 825.349c2.824 5.001 4.312 9.205 7.028 12.159 8.623 9.141 17.397 17.979 26.452 26.602 7.61 7.243 15.608 7.437 21.86 1.207 5.907-5.885 5.648-14.832-1.186-21.967-8.903-9.27-17.591-18.928-27.551-26.947-3.902-3.126-11.555-4.031-16.535-2.609-4.010 1.207-6.575 7.287-10.068 11.555zM232.243 702.318c0-6.791 0.302-13.603 0-20.372-0.453-8.192-4.829-13.387-13.28-14.013-9.011-0.69-15.091 4.312-15.522 12.719-0.438 6.562-0.687 14.225-0.687 21.946s0.249 15.384 0.741 22.981l-0.054-1.035c0.496 7.89 6.144 12.827 14.681 12.482 8.99-0.366 13.625-5.648 14.099-14.358 0.323-6.834 0.022-13.56 0.022-20.351zM135.729 769.148c-6.791 0-13.581-0.302-20.351 0-8.515 0.453-13.28 5.864-13.474 13.84s4.312 14.056 12.784 14.379c14.638 0.561 29.297 0.539 43.935 0 8.494-0.28 13.043-6.252 12.935-14.25s-4.807-13.517-13.323-13.991c-7.481-0.302-15.004 0.022-22.506 0.022z" />
<glyph unicode="&#xe93d;" glyph-name="Eliminar" d="M466.607-63.846c-3.722 0.757-7.444 1.436-11.136 2.301-26.998 6.317-45.547 28.882-47.277 56.683q-8.186 130.757-16.634 261.514-5.081 80.391-9.931 160.782c-0.232 3.815-0.633 7.63-0.973 11.738-3.614 0.494-6.919 0.71-10.101 1.452-8.603 2.008-12.85 7.908-11.908 16.171 0.803 7.136 6.178 11.738 14.379 12.232 2.317 0.139 4.633 0.093 6.935 0.093h323c2.811 0 5.668 0 8.464-0.216 7.508-0.474 13.445-6.578 13.653-14.112v-0.020c0.154-7.352-5.298-13.468-13.298-14.426-2.611-0.253-5.644-0.397-8.71-0.397-0.994 0-1.985 0.015-2.972 0.045l0.145-0.003q-139.144 0-278.272 0h-10.703c0-6.734-0.34-13.051 0-19.322q8.047-126.54 16.279-253.050 4.958-77.688 9.715-155.376c1.544-25.407 11.707-35.879 37.161-35.94q137.97-0.324 275.939 0c23.167 0 34.211 11.29 35.647 34.319q8.526 136.919 17.19 273.823 4.525 71.927 9.035 143.839c0.232 3.521 0 7.058 0 11.028-4.479 0.355-8.309 0.355-12.016 0.988-8.572 1.544-13.437 7.568-12.835 15.553s6.116 13.036 15.26 13.036q23.507 0.216 47.014 0c9.421 0 15.090-5.081 15.599-13.391 0.463-7.722-5.359-14.086-14.148-15.445-2.487-0.355-4.989-0.494-8.217-0.819-1.544-22.781-3.197-45.285-4.633-67.788q-6.070-95.388-12.032-190.745-4.911-78.769-9.777-157.693c-0.649-9.977-1.066-20.078-3.012-29.855-4.85-24.187-25.731-42.597-50.304-45.485-2.734-0.324-5.421-1.066-8.139-1.544zM118.154 804.408c23.816 33.84 50.876 64.575 86.368 86.615 74.043 45.964 151.36 53.718 231.056 16.418 37.886-17.731 66.166-47.262 89.673-81.441 3.089-4.448 6.008-8.943 9.051-13.391 0.278-0.402 0.819-0.602 1.792-1.297 12.68 6.533 25.561 13.375 38.612 19.785 4.551 2.536 9.829 4.514 15.412 5.654l0.357 0.061c11.028 1.622 15.445-2.548 14.935-13.638-1.544-31.662-7.089-62.691-14.951-93.349-11.784-45.933-31.384-88.932-50.057-132.255-4.448-10.333-10.58-12.217-21.16-7.151q-64.205 30.643-128.363 61.533-28.789 13.9-57.44 27.955c-2.956 1.318-5.501 2.948-7.762 4.899l0.040-0.034c-8.804 8.278-7.583 17.19 3.089 22.781 8.402 4.402 16.989 8.417 25.515 12.649s16.989 8.495 26.148 13.113c-9.267 20.078-20.248 38.705-34.643 55.231-13.629 15.702-30.794 27.974-50.281 35.623l-0.873 0.302c-0.958 0.371-1.9 0.757-2.857 1.158-10.487 4.325-14.194 10.58-11.074 18.673 2.965 7.722 10.364 9.746 20.959 6.178 34.334-11.645 59.695-34.813 79.294-64.236 10.333-15.445 18.534-32.512 26.426-49.424 6.425-13.746 4.062-18.179-9.421-24.959-10.92-5.498-21.855-10.95-34.458-17.267l157.847-75.68c26.352 53.074 45.819 114.681 55.137 179.566l0.387 3.287c-8.356-4.201-15.445-7.722-22.333-11.275-3.429-1.745-6.765-3.691-10.178-5.468-17.654-9.267-20.99-8.217-30.89 9.267-27.724 48.682-65.996 84.824-120.702 101.35-59.695 18.009-115.188 7.367-167.809-24.001-31.956-18.978-58.47-43.791-78.814-73.199l-0.542-0.828c-9.36-13.684-17.669-13.9-27.538-0.911zM649.892 942.47c-0.154 9.113 2.935 13.669 9.113 16.279s11.12 1.050 15.445-3.352c1.785-1.998 3.33-4.268 4.554-6.726l0.080-0.178q93.55-173.447 186.884-346.909c11.676-21.623 23.677-43.246 34.967-65.070 2.981-5.792 8.989-11.707 2.564-19.476-2.968-3.684-7.48-6.021-12.537-6.021-6.112 0-11.426 3.413-14.141 8.438l-0.042 0.085q-35.523 66.073-71.047 132.147-75.387 139.885-150.82 279.816c-2.27 4.17-3.985 8.68-5.020 10.966zM596.87 204.495q0 72.097 0 144.194c-0.004 0.341-0.007 0.744-0.007 1.148 0 3.403 0.176 6.766 0.521 10.078l-0.035-0.414c1.004 8.943 4.325 12.356 12.356 12.958 8.448 0.649 14.194-2.826 15.29-11.645 1.010-8.93 1.586-19.281 1.586-29.766 0-1.688-0.015-3.372-0.045-5.053l0.004 0.253q0.093-134.17-0.185-268.325c-0.031-4.052-0.707-7.935-1.93-11.567l0.076 0.261c-2.039-6.178-6.595-10.024-13.344-9.483s-11.707 4.093-13.252 10.966c-0.645 3.126-1.015 6.719-1.015 10.398 0 0.379 0.004 0.757 0.012 1.134l-0.001-0.056q-0.093 72.437-0.031 144.92zM728.754 319.189c-3.552-63.695-6.981-124.996-10.379-186.297-1.282-23.353-2.456-46.69-3.753-70.043-0.173-4.979-0.727-9.708-1.637-14.309l0.093 0.563c-1.699-7.985-7.12-11.877-14.935-11.46-7.367 0.402-11.954 4.726-13.128 12.619-0.192 1.303-0.301 2.808-0.301 4.338 0 0.647 0.020 1.29 0.058 1.927l-0.004-0.088q5.591 101.937 11.213 203.873 2.518 45.779 5.066 91.573c0.154 3.845 0.708 7.486 1.624 10.981l-0.079-0.355c2.162 7.877 7.722 11.8 14.503 10.811 8.17-1.127 13.437-6.178 13.314-14.256-0.216-14.055-1.127-28.156-1.653-39.879zM534.889 127.764c1.328-24.11 2.826-48.204 3.892-72.329 0.494-11.259-4.633-17.376-13.592-17.777s-14.626 4.85-15.352 15.445c-1.699 24.851-3.089 49.733-4.479 74.599q-5.205 93.488-10.302 186.961c-0.741 13.592-1.622 27.183-2.054 40.79-0.355 10.92 5.56 17.962 14.503 18.117 8.031 0.139 14.101-6.379 14.673-16.526q3.861-66.908 7.475-133.861 2.703-47.725 5.236-95.419zM785.854 867.917c26.504-0.927 44.373-9.113 54.907-27.646 20.526-36.141 40.389-72.684 59.17-109.752 13.252-26.148 2.78-59.571-21.824-75.155-3.676-2.332-8.958-4.433-12.804-3.552-4.309 0.973-9.437 4.726-11.198 8.618-1.544 3.568-0.124 9.36 1.714 13.391 1.452 3.089 5.452 5.22 8.402 7.722 11.939 9.947 15.877 23.615 8.773 37.238q-27.399 52.513-56.142 104.392c-7.722 13.761-21.283 17.762-36.62 12.85-2.244-0.86-4.96-1.649-7.755-2.225l-0.354-0.061c-8.294-1.251-14.039 1.544-16.557 7.97-2.718 6.842-0.51 14.951 6.919 18.349 8.912 4.031 18.642 6.317 23.368 7.861z" />
<glyph unicode="&#xe93e;" glyph-name="Email" d="M426.092 960c2.004-1.203 4.009-2.305 5.893-3.608 5.406-3.356 8.951-9.26 8.951-15.992 0-1.719-0.231-3.384-0.664-4.965l0.031 0.132c-1.784-8.519-7.597-13.109-15.674-14.852-2.324-0.355-5.005-0.558-7.734-0.558-1.136 0-2.265 0.035-3.384 0.105l0.153-0.008h-265.401c-0.18-4.189-0.461-7.416-0.461-10.663q0-195.027 0.22-390.073c0.081-5.662 2.208-10.812 5.674-14.758l-0.022 0.026q175.744-176.386 351.99-352.411c1.644-1.624 3.407-3.127 5.592-5.091 2.566 2.405 5.031 4.55 7.336 6.855q175.043 175.023 350.246 349.986c4.833 4.494 7.847 10.887 7.847 17.985 0 0.428-0.011 0.853-0.033 1.276l0.002-0.059q-0.341 192.060-0.16 384.080v12.828h-12.628q-129.022 0-258.044 0c-16.356 0-26.999 10.222-22.93 23.592 1.864 6.153 8.699 10.804 13.289 16.135h306.070c10.804-6.454 14.031-15.915 14.031-28.402-0.461-64.341 0-128.681-0.401-193.022-0.011-0.262-0.017-0.569-0.017-0.878 0-6.88 2.986-13.063 7.732-17.323l0.022-0.019c30.386-29.966 60.352-60.352 90.678-90.358 6.181-5.749 10.036-13.928 10.036-23.007 0-0.332-0.005-0.664-0.015-0.994l0.001 0.048q-0.261-283.039-0.261-566.058c0.002-0.234 0.003-0.512 0.003-0.789 0-9.539-1.133-18.813-3.273-27.695l0.163 0.804c-11.385-46.642-50.671-76.167-100.7-76.287q-408.013 0-816.065 0c-2.666 0-5.332 0-8.018 0.14-42.25 1.896-77.522 29.768-90.353 67.946l-0.205 0.704c-2.004 6.234-3.628 12.628-5.432 18.961v594.18c6.013 6.594 11.726 13.429 18.039 19.743q41.551 41.852 83.483 83.382c4.278 3.874 6.955 9.45 6.955 15.65 0 0.319-0.007 0.636-0.021 0.951l0.002-0.045c-0.241 64.661 0.12 129.343-0.361 194.004-0.1 12.487 3.147 22.048 14.031 28.402zM74.142-21.026c11.806-1.303 21.848-3.347 31.91-3.367q406.068-0.241 812.157-0.12c1.234-0.087 2.674-0.136 4.126-0.136 2.416 0 4.801 0.137 7.146 0.403l-0.287-0.026c6.635 1.203 13.169 3.007 19.002 4.41l-274.801 274.781c-2.159-3.079-4.311-5.765-6.617-8.308l0.063 0.070q-68.59-68.67-137.18-137.22c-13.79-13.77-22.95-13.77-36.56-0.16q-69.011 68.911-137.942 137.882c-2.505 2.505-5.131 4.891-6.574 6.254zM44.076 10.924l270.832 270.993-275.042 275.222c0.16 1.223 0 0.261 0-0.722q0-260.911 0.18-521.801c-0.080-7.697 2.465-15.394 3.929-23.572zM984.474 560.847l-276.605-276.605 272.957-272.897c1.223 9.681 3.488 19.302 3.508 28.943q0.301 255.499 0.14 510.978zM50.029 612.56l57.325-58.508v115.332zM916.465 555.676l55.742 54.68-55.742 57.365zM516.069 960c4.49-4.209 10.363-7.657 13.169-12.788 4.811-8.819 0-20.044-8.94-24.594-2.563-1.323-5.595-2.099-8.807-2.099-10.782 0-19.523 8.741-19.523 19.523 0 6.301 2.985 11.905 7.619 15.475l0.046 0.034c2.004 1.604 4.269 2.966 6.434 4.45zM566.179 523.144c-16.857-16.797-35.518-27.199-58.127-28.863-26.839-2.004-49.669 7.657-68.991 25.857-49.769 46.883-50.691 137.541-2.004 183.942 33.774 32.19 78.913 36.36 118.138 10.924 1.323-0.862 2.786-1.503 4.329-2.345 2.946 17.739 10.262 25.816 22.048 24.854 12.467-1.022 18.26-10.022 18.26-28.282v-148.986c0-2.987-0.1-6.013 0-9 1.142-20.264 16.035-31.449 35.498-26.658 19.924 4.891 31.308 18.821 39.065 36.861 44.497 103.406-23.792 188.653-93.023 215.692-68.149 26.618-131.909 16.676-186.408-31.87-54.94-48.907-72.899-112.045-52.114-182.399 20.525-69.452 69.352-111.003 140.628-125.374 7.797-1.563 15.855-2.004 23.792-2.886 12.848-1.563 20.665-9.481 20.164-20.365-0.521-11.505-9.381-18.721-22.75-18.541-86.189 1.243-167.567 61.274-196.67 145.238-45.018 130.526 39.687 267.746 177.508 287.308 105.811 15.013 211.242-54.78 237.239-157.324 12.207-48.105 4.009-94.206-18.32-137.481-13.79-26.939-36.64-43.435-67.087-48.526-26.618-4.45-50.811 6.013-65.343 28.823-1.824 2.746-3.407 5.532-5.833 9.401zM560.446 619.896c-0.541 4.209-1.042 12.227-2.626 20.044-5.813 28.342-23.592 48.105-46.281 51.813-22.048 3.688-45.94-8.759-59.25-30.988-18.941-31.589-14.672-80.175 9.501-107.756 23.632-26.999 57.867-26.057 79.574 2.325 13.73 17.859 18.801 38.604 19.122 64.561z" />
<glyph unicode="&#xe93f;" glyph-name="Email2" horiz-adv-x="1025" d="M538.411 960c15.817-2.005 31.674-3.648 47.45-5.914 97.567-14.033 183.486-53.925 258.441-117.493 67.18-56.844 118.945-129.874 149.481-213.146l1.129-3.518c9.262-25.419-3.207-49.234-28.446-54.928-19.165-4.31-37.968 6.435-45.586 26.842-12.79 34.079-28.506 66.815-49.395 96.745-74.052 106.247-174.786 170.176-303.385 187.696-227.789 31.052-442.067-126.013-481.68-351.998-4.24-22.76-6.666-48.946-6.666-75.698 0-208.335 147.077-382.319 343.065-423.783l2.829-0.501c111.78-23.274 217.165-3.408 314.972 55.87 7.578 4.591 15.797 9.362 24.276 10.905 2.031 0.383 4.368 0.602 6.756 0.602 16.622 0 30.764-10.614 36.021-25.433l0.083-0.267c6.595-18.042 0.221-36.705-16.939-47.791-51.578-34.062-112.153-59.397-177.219-72.223l-3.2-0.526c-220.332-42.218-440.203 59.378-546.831 255.454-160.252 294.685-4.19 655.524 318.741 741.724 30.070 8.019 61.603 10.384 92.455 15.416 3.248 0.521 6.475 1.243 9.703 1.884zM1024.702 389.735c-2.005-9.081-3.348-18.303-5.814-27.223-19.846-71.987-66.013-118.656-138.863-133.991-75.074-15.817-136.938 10.023-184.308 70.323-1.644 2.005-3.127 4.31-4.771 6.415-0.456 0.422-0.986 0.772-1.567 1.028l-0.036 0.014c-86.962-108.011-239.617-106.708-327.922-26.462-85.258 77.48-99.872 206.239-32.315 299.376 38.51 53.123 90.811 84.376 156.143 92.435s122.986-10.845 174.766-52.702c0.501 5.212 0.601 9.061 1.263 12.83 3.608 20.247 21.51 34.781 41.116 33.538 20.949-1.078 37.553-18.222 37.768-39.29v-0.021c0.441-24.998 0.12-50.016 0.12-75.034 0-48.673-0.261-97.346 0-146.019 0.361-51.48 37.026-92.535 89.267-100.774 46.428-7.317 94.64 22.853 109.855 69.461 2.815 8.673 4.67 18.701 5.162 29.086l0.010 0.262c1.283 22.713 13.431 38.389 33.939 42.098 19.165 3.408 36.224-7.778 44.343-28.987 0.495-0.875 1.081-1.627 1.761-2.282l0.003-0.003zM511.81 301.53c80.868-0.14 146.681 65.031 146.901 145.518 0.241 80.928-64.831 146.821-145.278 147.102-0.241 0.001-0.526 0.002-0.812 0.002-80.823 0-146.342-65.52-146.342-146.342 0-80.537 65.058-145.879 145.487-146.34h0.044z" />
</font>
</defs>
</svg>
